<svg xmlns="http://www.w3.org/2000/svg" xmlns:xlink="http://www.w3.org/1999/xlink" viewBox="0 0 572.07 503.34"><defs><style>.cls-1{fill:none;}.cls-2{isolation:isolate;}.cls-3{clip-path:url(#clip-path);}.cls-4{fill:#85878b;}.cls-5{fill:#898b8e;}.cls-6{fill:#8c8e92;}.cls-7{fill:#999b9f;}.cls-8{fill:#7e8084;}.cls-9{fill:#c6c7cb;}</style><clipPath id="clip-path"><path class="cls-1" d="M568.63,95.75l-6.06,21.74c-6.22,22.3-21.56,48.44-51.69,78.4-75.49,75.05-119,100.72-135.42,159.49l6.06-21.74c16.38-58.77,59.93-84.44,135.42-159.49C547.06,144.2,562.41,118,568.63,95.75Z"/></clipPath></defs><title>shape1</title><g id="Layer_2" data-name="Layer 2"><g id="Layer_1-2" data-name="Layer 1"><g class="cls-2"><g class="cls-2"><g class="cls-3"><g class="cls-2"><path class="cls-4" d="M568.63,95.75l-6.06,21.74a128.13,128.13,0,0,1-12.85,29.73l6.06-21.74a128.13,128.13,0,0,0,12.85-29.73"/><path class="cls-5" d="M555.77,125.49l-6.06,21.74c-8.64,14.91-21.21,31.14-38.84,48.67q-3.94,3.92-7.77,7.66l6.06-21.74q3.83-3.75,7.77-7.66c17.63-17.53,30.2-33.76,38.84-48.67"/><path class="cls-6" d="M509.16,181.82l-6.06,21.74c-28.85,28.24-52.78,49.26-72.06,68.11l6.06-21.74c19.29-18.85,43.21-39.87,72.06-68.11"/><path class="cls-5" d="M437.1,249.93,431,271.67c-17.63,17.23-31.38,32.63-41.49,50.07L395.61,300c10.11-17.44,23.87-32.84,41.49-50.07"/><path class="cls-4" d="M395.61,300l-6.06,21.74a142.27,142.27,0,0,0-14.1,33.65l6.06-21.74A142.27,142.27,0,0,1,395.61,300"/></g></g></g><polygon class="cls-7" points="376.61 455.85 370.55 477.59 262.1 503.34 268.16 481.6 376.61 455.85"/><polygon class="cls-8" points="268.16 481.6 262.1 503.34 0 146.15 6.06 124.41 268.16 481.6"/><path class="cls-9" d="M530.1,0c5,3.09,99.8,61.82-13.16,174.16s-154.42,114-140.32,281.7L268.16,481.6,6.06,124.41Z"/></g></g></g></svg>