<svg xmlns="http://www.w3.org/2000/svg" viewBox="0 0 20.94 20.94">
  <title>Asset 2</title>
  <g>
    <path d="M20.59,20.59H.35V.35H20.59Zm.35.35H0V0H20.94Z" style="fill: #9e1f63;fill-rule: evenodd"/>
    <path d="M15.77,12.26a2,2,0,0,1-2,2h-.37c0-.19.08-.39.12-.59h.25a1.37,1.37,0,1,0,0-2.75h-.08v-.6h.08a2,2,0,0,1,2,2" style="fill: #9e1f63"/>
    <path d="M14.94,16.54c-.59.28-1.17.49-1.39.57a1.71,1.71,0,0,1-.63.16H7.32a1.71,1.71,0,0,1-.63-.16c-.22-.08-.8-.29-1.39-.57a.15.15,0,0,1,.05-.29h9.52a.15.15,0,0,1,.05.29" style="fill: #9e1f63"/>
    <path d="M7.81,15.86a9.63,9.63,0,0,1-.94-4.18V9.89a.21.21,0,0,1,.21-.21h6.07a.21.21,0,0,1,.21.21v1.79a9.63,9.63,0,0,1-.94,4.18H7.81" style="fill: #9e1f63"/>
    <path d="M7.81,15.86a9.63,9.63,0,0,1-.94-4.18V9.89a.21.21,0,0,1,.21-.21h6.07a.21.21,0,0,1,.21.21v1.79a9.63,9.63,0,0,1-.94,4.18H7.81" style="fill: #9e1f63"/>
    <path d="M9.07,9a2.54,2.54,0,0,1,1-3c1.41-1.16.62-1.81.26-2.21h.35c.7.75.7,1.38-.31,2.28S9,7.3,9.36,9h-.3" style="fill: #9e1f63"/>
    <path d="M9.93,9c0-1.71,2.15-1.92,3.07-2.93s0-1.94-.69-2.24h.44c1.51,1,1.08,2.26-.43,3.08s-2,1-2.11,2.09H9.93" style="fill: #9e1f63"/>
  </g>
</svg>
