<svg xmlns="http://www.w3.org/2000/svg" viewBox="0 0 21.42 21.42">
  <title>Asset 7</title>
  <g>
    <path d="M21.06,21.06H.36V.36h20.7Zm.36.36H0V0H21.42Z" style="fill: #00a79d;fill-rule: evenodd"/>
    <polyline points="16.59 1.62 16.59 19.34 15.8 19.34 15.8 3.06 5.64 3.06 5.64 19.34 4.84 19.34 4.84 1.62 16.59 1.62" style="fill: #00a79d"/>
    <path d="M6.19,2.33a.28.28,0,1,0-.28.28.28.28,0,0,0,.28-.28" style="fill: #00a79d"/>
    <path d="M6.66,12.25,8,7.28a.73.73,0,0,1,.69-.49A9.46,9.46,0,0,1,10,6.72a9.46,9.46,0,0,1,1.23.07.73.73,0,0,1,.69.49l1.39,5c.11.35-.57.59-.69.22L11.46,9.16v2.53l1.1,7.46a.16.16,0,0,1-.16.19h-.6a.17.17,0,0,1-.17-.15l-1.46-6.07A.12.12,0,0,0,10,13c-.09,0-.13,0-.14.1l-.53,6a.16.16,0,0,1-.18.17H8.64a.16.16,0,0,1-.18-.18v-7.1h0V9.16L7.35,12.47c-.13.37-.8.13-.69-.22" style="fill: #00a79d"/>
    <path d="M10.84,5.22a1.29,1.29,0,0,0-.12-.63.85.85,0,0,0-1.49,0,1.29,1.29,0,0,0-.12.63,1.29,1.29,0,0,0,.12.63.85.85,0,0,0,1.49,0,1.29,1.29,0,0,0,.12-.63" style="fill: #00a79d"/>
    <path d="M6.66,12.25,8,7.28a.73.73,0,0,1,.69-.49A9.46,9.46,0,0,1,10,6.72a9.46,9.46,0,0,1,1.23.07.73.73,0,0,1,.69.49l1.39,5c.11.35-.57.59-.69.22L11.46,9.16v2.53l1.1,7.46a.16.16,0,0,1-.16.19h-.6a.17.17,0,0,1-.17-.15l-1.46-6.07A.12.12,0,0,0,10,13c-.09,0-.13,0-.14.1l-.53,6a.16.16,0,0,1-.18.17H8.64a.16.16,0,0,1-.18-.18v-7.1h0V9.16L7.35,12.47c-.13.37-.8.13-.69-.22" style="fill: #00a79d"/>
    <path d="M10.84,5.22a1.29,1.29,0,0,0-.12-.63.85.85,0,0,0-1.49,0,1.29,1.29,0,0,0-.12.63,1.29,1.29,0,0,0,.12.63.85.85,0,0,0,1.49,0,1.29,1.29,0,0,0,.12-.63" style="fill: #00a79d"/>
    <path d="M15.42,9.93v.3a1.39,1.39,0,1,0,0,2.78v.3a1.69,1.69,0,1,1,0-3.38" style="fill: #00a79d"/>
    <path d="M12.55,16.76a5.85,5.85,0,0,0,2.87.75v-.34a5.51,5.51,0,0,1-2.93-.84l.06.44" style="fill: #00a79d"/>
    <path d="M12,6.82a.91.91,0,0,1,.17.3,5.51,5.51,0,0,1,3.24-1V5.73A5.86,5.86,0,0,0,12,6.82" style="fill: #00a79d"/>
    <path d="M12.2,12.61s-.32-1-.45-1.37L12,13a3.7,3.7,0,0,0,3.42,2.3V15a3.38,3.38,0,0,1-3.22-2.39" style="fill: #00a79d"/>
    <path d="M12.73,9.09l.1.37a3.37,3.37,0,0,1,2.59-1.21V7.93a3.68,3.68,0,0,0-2.69,1.16" style="fill: #00a79d"/>
  </g>
</svg>
