<svg xmlns="http://www.w3.org/2000/svg" viewBox="0 0 19.69 19.69">
  <title>Asset 4</title>
  <g>
    <path d="M19.36,19.36H.33V.33h19Zm.33.33H0V0H19.69Z" style="fill: #662d91;fill-rule: evenodd"/>
    <g>
      <path d="M9,3.25a1.27,1.27,0,0,1,.12-.62.84.84,0,0,1,1.47,0,1.27,1.27,0,0,1,.12.62,1.27,1.27,0,0,1-.12.62.84.84,0,0,1-1.47,0A1.27,1.27,0,0,1,9,3.25" style="fill: #662d91;fill-rule: evenodd"/>
      <path d="M11.15,7.83l.12-.72,1.11,3.31,0,.07a.29.29,0,0,0,.26.11c.19,0,.4-.15.4-.34a.26.26,0,0,0,0-.06l-.27-1-1.11-4A.72.72,0,0,0,11,4.8a8,8,0,0,0-1-.06H9.73a8.08,8.08,0,0,0-1,.07A.72.72,0,0,0,8,5.28L6.93,9.12l-.3,1.07a.25.25,0,0,0,0,.08c0,.18.21.32.4.33a.29.29,0,0,0,.27-.12l0-.06L8.42,7.1l.12.72.08.53v.06L7,15.27H9.09L9.3,17c0,.11.07.17.18.17h.73c.11,0,.16-.06.18-.17l.21-1.72h2.08l-1.6-6.85V8.36Z" style="fill: #662d91;fill-rule: evenodd"/>
    </g>
  </g>
</svg>
