<svg xmlns="http://www.w3.org/2000/svg" viewBox="0 0 21.62 21.62">
  <title>Asset 6</title>
  <g>
    <path d="M21.26,21.26H.36V.36h20.9Zm.36.36H0V0H21.62Z" style="fill: #2e3192;fill-rule: evenodd"/>
    <path d="M12.69,11.33l1.46-5.24a.77.77,0,0,1,.72-.51,10,10,0,0,1,1.3-.07,10,10,0,0,1,1.29.07.77.77,0,0,1,.72.51l1.46,5.24c.11.37-.6.62-.73.23L17.76,8.07v2.67l1.17,7.86a.17.17,0,0,1-.17.2h-.63a.18.18,0,0,1-.18-.15L16.4,12.25a.13.13,0,0,0-.14-.11c-.09,0-.14,0-.14.11l-.55,6.37a.17.17,0,0,1-.19.18h-.59a.17.17,0,0,1-.19-.19V8.07l-1.17,3.49c-.13.39-.84.14-.73-.23" style="fill: #2e3192"/>
    <path d="M17.1,3.92A1.35,1.35,0,0,0,17,3.26a.9.9,0,0,0-1.57,0,1.36,1.36,0,0,0-.13.66,1.36,1.36,0,0,0,.13.66.9.9,0,0,0,1.57,0,1.35,1.35,0,0,0,.13-.66" style="fill: #2e3192"/>
    <polyline points="11.02 3.8 10.59 3.8 10.59 16.78 11.02 16.78 11.02 3.8" style="fill: #2e3192"/>
    <path d="M4.67,3.92a1.36,1.36,0,0,0,.13.66.9.9,0,0,0,1.57,0,1.36,1.36,0,0,0,.13-.66,1.36,1.36,0,0,0-.13-.66.9.9,0,0,0-1.57,0,1.36,1.36,0,0,0-.13.66" style="fill: #2e3192"/>
    <path d="M9,11.33,7.55,6.09a.76.76,0,0,0-.72-.51,8.94,8.94,0,0,0-1.24-.07h0a8.94,8.94,0,0,0-1.24.07.76.76,0,0,0-.72.51L2.15,11.33a.28.28,0,0,0,.09.3.51.51,0,0,0,.18.1l.07,0h.14a.28.28,0,0,0,.25-.19L4.06,8l.14.88.07.46v0L2.55,16.78H4.77L5,18.61c0,.12.07.18.19.18H6c.12,0,.17-.06.19-.18l.23-1.84H8.61L6.9,9.44v0L7,8.93,7.1,8l1.18,3.51a.28.28,0,0,0,.25.19h.14l.07,0a.51.51,0,0,0,.18-.1.35.35,0,0,0,.08-.1A.26.26,0,0,0,9,11.33Z" style="fill: #2e3192"/>
  </g>
</svg>
