<svg xmlns="http://www.w3.org/2000/svg" viewBox="0 0 24.84 24.84">
  <title>Asset 1</title>
  <g>
    <path d="M24.42,24.42H.41V.41h24Zm.41.41H0V0H24.84Z" style="fill: #f15a29;fill-rule: evenodd"/>
    <polyline points="7.42 4.74 7.42 2.36 22.02 2.36 22.02 22.48 7.42 22.48 7.42 21.83 21.38 21.83 21.38 3.01 8.07 3.01 8.07 4.74 7.42 4.74" style="fill: #f15a29"/>
    <polyline points="8.07 21.18 7.42 21.18 7.42 5.37 8.07 5.37 8.07 21.18" style="fill: #f15a29"/>
    <path d="M10.67,11.09a.32.32,0,1,1-.32-.32.32.32,0,0,1,.32.32" style="fill: #f15a29"/>
    <path d="M10.67,12.16a.32.32,0,1,1-.32-.32.32.32,0,0,1,.32.32" style="fill: #f15a29"/>
    <path d="M10.67,13.23a.32.32,0,1,1-.32-.32.32.32,0,0,1,.32.32" style="fill: #f15a29"/>
    <path d="M4,5.61H4L6.14,7.74a0,0,0,0,1,0,.07l-.3.3a0,0,0,0,1-.07,0L4.31,6.74V10.2a0,0,0,0,1,0,0H3.69a0,0,0,0,1,0,0V6.74L2.19,8.11a0,0,0,0,1-.07,0l-.3-.3a0,0,0,0,1,0-.07L3.95,5.62H4" style="fill: #f15a29"/>
    <path d="M3.95,17.95,1.82,15.83a0,0,0,0,1,0-.07l.3-.3a0,0,0,0,1,.07,0l1.45,1.37V13.36a0,0,0,0,1,0,0h.57a0,0,0,0,1,0,0v3.46l1.45-1.37a0,0,0,0,1,.07,0l.3.3a0,0,0,0,1,0,.07L4,17.95H3.95" style="fill: #f15a29"/>
    <path d="M12.8,14l1.41-5a.74.74,0,0,1,.7-.49,9.61,9.61,0,0,1,1.25-.07,9.61,9.61,0,0,1,1.25.07.74.74,0,0,1,.7.49l1.41,5c.11.36-.57.6-.7.23l-1.13-3.36v2.57L18.8,21a.16.16,0,0,1-.16.19H18a.17.17,0,0,1-.18-.15l-1.48-6.15a.13.13,0,0,0-.14-.11c-.09,0-.13,0-.14.11L15.56,21a.16.16,0,0,1-.18.17h-.57a.16.16,0,0,1-.18-.18V13.8h0V10.87l-1.13,3.36c-.13.37-.81.13-.7-.23" style="fill: #f15a29"/>
    <path d="M17,6.87a1.3,1.3,0,0,0-.12-.64.87.87,0,0,0-1.51,0,1.3,1.3,0,0,0-.12.64,1.3,1.3,0,0,0,.12.64.87.87,0,0,0,1.51,0A1.3,1.3,0,0,0,17,6.87" style="fill: #f15a29"/>
  </g>
</svg>
