<svg xmlns="http://www.w3.org/2000/svg" viewBox="0 0 19.43 19.43">
  <title>Asset 3</title>
  <g>
    <path d="M19.11,19.11H.32V.32H19.11Zm.32.32H0V0H19.43Z" style="fill: #662d91;fill-rule: evenodd"/>
    <path d="M6.5,10,7.85,5.2a.71.71,0,0,1,.67-.47,9.26,9.26,0,0,1,1.2-.07,9.25,9.25,0,0,1,1.2.07.71.71,0,0,1,.67.47L12.93,10c.1.34-.55.57-.67.22L11.17,7V9.49l1.08,7.25a.15.15,0,0,1-.15.18h-.58a.17.17,0,0,1-.17-.14L9.92,10.93a.12.12,0,0,0-.13-.1c-.09,0-.13,0-.13.1l-.51,5.84a.16.16,0,0,1-.17.17H8.43a.16.16,0,0,1-.17-.18V9.84h0V7L7.17,10.25c-.12.36-.78.13-.67-.22M10.57,3.2a1.25,1.25,0,0,0-.12-.61A.83.83,0,0,0,9,2.59a1.25,1.25,0,0,0-.12.61A1.25,1.25,0,0,0,9,3.81a.83.83,0,0,0,1.45,0A1.25,1.25,0,0,0,10.57,3.2Z" style="fill: #662d91;fill-rule: evenodd"/>
  </g>
</svg>
