<svg xmlns="http://www.w3.org/2000/svg" viewBox="0 0 17.87 17.87">
  <title>Asset 5</title>
  <g>
    <path d="M17.57,17.57H.3V.3H17.57Zm.3.3H0V0H17.87Z" style="fill: #f15a29;fill-rule: evenodd"/>
    <polyline points="5.34 3.41 5.34 1.7 15.84 1.7 15.84 16.17 5.34 16.17 5.34 15.71 15.38 15.71 15.38 2.16 5.81 2.16 5.81 3.41 5.34 3.41" style="fill: #f15a29"/>
    <polyline points="5.81 15.23 5.34 15.23 5.34 3.86 5.81 3.86 5.81 15.23" style="fill: #f15a29"/>
    <path d="M7.68,8a.23.23,0,1,1-.23-.23A.23.23,0,0,1,7.68,8" style="fill: #f15a29"/>
    <path d="M7.68,8.75a.23.23,0,1,1-.23-.23.23.23,0,0,1,.23.23" style="fill: #f15a29"/>
    <path d="M7.68,9.52a.23.23,0,1,1-.23-.23.23.23,0,0,1,.23.23" style="fill: #f15a29"/>
    <path d="M2.86,4h0L4.41,5.57a0,0,0,0,1,0,0l-.22.22a0,0,0,0,1,0,0l-1-1V7.34a0,0,0,0,1,0,0H2.66a0,0,0,0,1,0,0V4.85l-1,1a0,0,0,0,1,0,0l-.21-.22a0,0,0,0,1,0,0L2.84,4h0" style="fill: #f15a29"/>
    <path d="M2.84,12.91,1.31,11.38a0,0,0,0,1,0,0l.21-.22a0,0,0,0,1,0,0l1,1V9.61a0,0,0,0,1,0,0h.41a0,0,0,0,1,0,0v2.49l1-1a0,0,0,0,1,0,0l.22.22a0,0,0,0,1,0,0L2.89,12.91h0" style="fill: #f15a29"/>
    <path d="M9.21,10.07l1-3.63a.53.53,0,0,1,.5-.36,6.92,6.92,0,0,1,.9,0,6.91,6.91,0,0,1,.9,0,.53.53,0,0,1,.5.36l1,3.63c.08.26-.41.43-.51.16l-.81-2.41V9.67l.81,5.44a.12.12,0,0,1-.11.14H13a.12.12,0,0,1-.13-.11l-1.07-4.43a.09.09,0,0,0-.1-.08c-.06,0-.09,0-.1.08l-.38,4.41a.12.12,0,0,1-.13.12h-.41a.12.12,0,0,1-.13-.13V9.93h0V7.82l-.81,2.42c-.09.27-.58.09-.51-.16" style="fill: #f15a29"/>
    <path d="M12.26,4.94a.94.94,0,0,0-.09-.46.62.62,0,0,0-1.09,0,.94.94,0,0,0-.09.46.94.94,0,0,0,.09.46.62.62,0,0,0,1.09,0,.94.94,0,0,0,.09-.46" style="fill: #f15a29"/>
  </g>
</svg>
