<svg xmlns="http://www.w3.org/2000/svg" xmlns:xlink="http://www.w3.org/1999/xlink" viewBox="0 0 792.2 404.68">
  <defs>
    <style>
      .\37 6a5ff0c-a88d-4931-a000-27f971ac278e {
        fill: none;
      }

      .cbde264b-6aac-4b0d-8d80-f9b4225db160 {
        isolation: isolate;
      }

      .\37 051e363-f329-4fcb-8a39-20766b21398a {
        fill: #a7a9ad;
      }

      .\30 4d644c0-68e5-41a3-b9fa-a4e88df66e0e {
        clip-path: url(#df087d28-db8f-4277-8a03-f8c77e9f8914);
      }

      .\39 84a1239-6108-4214-9b95-3bdba2603e28 {
        fill: #8d8f94;
      }

      .\30 571b86a-3a7f-4273-9557-6026f1c43e9a {
        fill: #919398;
      }

      .\39 a969eb9-d82c-42be-9c5e-e417499b3d11 {
        fill: #95979b;
      }

      .e51b4e79-3224-4e48-8a3b-7e11a2335cb8 {
        fill: #989b9f;
      }

      .af4dec32-ef1b-43b7-ad25-c24027697fe6 {
        fill: #8a8c90;
      }

      .\39 42538ca-13e4-43cb-ab75-e04971b9bdfd {
        fill: #d9dade;
      }
    </style>
    <clipPath id="df087d28-db8f-4277-8a03-f8c77e9f8914">
      <path class="76a5ff0c-a88d-4931-a000-27f971ac278e" d="M683.74,382.94l-6.06,21.74C478,281,446.78,296.62,226.92,263.3S.35,150.34,0,146.15l6.06-21.74c.35,4.19,7.07,83.84,226.92,117.15S484.1,259.31,683.74,382.94Z"/>
    </clipPath>
  </defs>
  <title>left_triangle_0</title>
  <g id="221a1025-3ee4-4eed-8f0d-7a3b0c5aa846" data-name="Layer 2">
    <g id="eb46e310-e42a-457a-8931-2ad232f94ff3" data-name="Layer 1">
      <g class="cbde264b-6aac-4b0d-8d80-f9b4225db160">
        <polygon class="7051e363-f329-4fcb-8a39-20766b21398a" points="792.2 357.19 786.14 378.93 677.68 404.68 683.74 382.94 792.2 357.19"/>
        <g class="cbde264b-6aac-4b0d-8d80-f9b4225db160">
          <g class="04d644c0-68e5-41a3-b9fa-a4e88df66e0e">
            <g class="cbde264b-6aac-4b0d-8d80-f9b4225db160">
              <path class="984a1239-6108-4214-9b95-3bdba2603e28" d="M683.74,382.94l-6.06,21.74c-52.88-32.75-94-55.73-129.84-72.44l6.06-21.74c35.89,16.71,77,39.69,129.84,72.44"/>
              <path class="0571b86a-3a7f-4273-9557-6026f1c43e9a" d="M553.9,310.5l-6.06,21.74a530.26,530.26,0,0,0-62.5-24.73l6.06-21.74a530.26,530.26,0,0,1,62.5,24.73"/>
              <path class="9a969eb9-d82c-42be-9c5e-e417499b3d11" d="M491.4,285.77l-6.06,21.74a542.2,542.2,0,0,0-69.55-17l6.06-21.74a542.2,542.2,0,0,1,69.55,17"/>
              <path class="e51b4e79-3224-4e48-8a3b-7e11a2335cb8" d="M421.86,268.75l-6.06,21.74C367,281.59,310.67,276,226.92,263.3q-14-2.12-26.8-4.47l6.06-21.74q12.84,2.35,26.8,4.47c83.74,12.69,140.13,18.29,188.87,27.19"/>
              <path class="9a969eb9-d82c-42be-9c5e-e417499b3d11" d="M206.18,237.09l-6.06,21.74a624.08,624.08,0,0,1-77.87-19l6.06-21.74a624.08,624.08,0,0,0,77.87,19"/>
              <path class="0571b86a-3a7f-4273-9557-6026f1c43e9a" d="M128.31,218.06l-6.06,21.74A376.6,376.6,0,0,1,78.4,222.89l6.06-21.74a376.6,376.6,0,0,0,43.85,16.91"/>
              <path class="984a1239-6108-4214-9b95-3bdba2603e28" d="M84.46,201.15,78.4,222.89a242.32,242.32,0,0,1-31.59-17.44l6.06-21.74a242.32,242.32,0,0,0,31.59,17.44"/>
              <path class="af4dec32-ef1b-43b7-ad25-c24027697fe6" d="M52.88,183.71l-6.06,21.74C2.53,176.16.2,148.57,0,146.15l6.06-21.74c.2,2.42,2.53,30,46.82,59.31"/>
            </g>
          </g>
        </g>
        <path class="942538ca-13e4-43cb-ab75-e04971b9bdfd" d="M530.09,0,792.2,357.19,683.74,382.94C484.1,259.31,452.84,274.88,233,241.56S6.41,128.6,6.06,124.41Z"/>
      </g>
    </g>
  </g>
</svg>
