<svg xmlns="http://www.w3.org/2000/svg" xmlns:xlink="http://www.w3.org/1999/xlink" viewBox="0 0 472.22 180.62">
  <defs>
    <style>
      .\35 9f6ae84-5b4a-4dac-8418-976773ae6349 {
        fill: none;
      }

      .\35 f7e812c-1e4b-4616-a1c1-a53869f11d2a {
        isolation: isolate;
      }

      .ba35fcc2-774a-4014-bd6c-0ce294f380d9 {
        fill: #875b29;
      }

      .\34 d2d568a-c936-4726-848e-db9949f2e2eb {
        fill: #6f4a1d;
      }

      .a02cd324-2508-4e4d-bb5b-6d07ce1ffb04 {
        fill: #885b29;
      }

      .fe4fe893-4e9a-4cd3-89f8-ff49e6a5882a {
        fill: #875b28;
      }

      .f00d1abb-d552-48b3-9e3a-86f569d952a2 {
        clip-path: url(#84c08910-be90-46a9-a284-8a0e43f92b17);
      }

      .\35 87e6024-f39d-48a4-a11a-f8dcc54ee218 {
        fill: #815626;
      }

      .a1d660f4-74c1-4168-9cc0-f4b2fbc3c2bc {
        fill: #a56f35;
      }

      .a64d9266-41dc-4d23-8d11-04b8c5546878 {
        fill: #704a1d;
      }

      .aef8c9c4-de50-43ea-ac13-c6956f02f5db {
        clip-path: url(#ee209f0b-0c88-44fb-91dc-b82a9bcc10bb);
      }

      .\37 083d3b7-7709-43af-90f8-a6b150ab0216 {
        fill: #7e5525;
      }

      .fc262b53-048a-45b5-8d64-e5017de3c537 {
        clip-path: url(#70f86a09-149f-4c76-9ad5-1362c9814d97);
      }

      .\32 8556d55-d08c-474d-a128-38550a30030f {
        clip-path: url(#86a96d73-2143-4da3-ad73-36ec2f840980);
      }

      .fa8f5b2c-cc02-45a5-a957-6e0ed92763b2 {
        clip-path: url(#a3455b16-0483-4cbf-ae8e-578ae229676a);
      }

      .\34 6ef256a-ccbe-489c-93d3-050f675a464f {
        fill: #7c5323;
      }

      .\30 2b056e9-126b-406c-adba-583b7a0f90a3 {
        fill: #795122;
      }

      .a347b760-5479-4555-8ad8-37881a8c48db {
        fill: #774f21;
      }

      .\32 38524e6-9f33-4b40-ac7a-734da1ec9651 {
        clip-path: url(#98ab2c90-4fd9-465c-b252-5d91d730a4cd);
      }

      .\30 13a5f1a-cdb6-4a00-b2be-1762b6b81154 {
        clip-path: url(#e799e4b1-72ff-4394-aabb-f06b7a0135c1);
      }

      .\38 5771b24-0bcd-4de9-8b16-a58e9d3bd75f {
        fill: #724c1e;
      }

      .\33 a26b62d-158d-4ed4-882b-364825b97f14 {
        fill: #744e20;
      }

      .f5a00bdc-3411-4a79-b96a-c6fc7f67a4fa {
        clip-path: url(#28fe57b9-2f5b-4780-b3b2-d718efcceefa);
      }

      .cf74b9ab-fb5d-4267-808e-5b4c0682e4ce {
        clip-path: url(#dca4358b-644d-4505-ad1f-70aef7af4a1c);
      }

      .\36 5dcf420-8be6-49e7-96f1-ed80d9efaf99 {
        clip-path: url(#8145e281-82c8-463e-ac61-aa3f94b75680);
      }

      .b57614c0-09ad-4cbc-a15e-c5e1cb6a79c5 {
        clip-path: url(#86e3d1ee-e629-41b3-bca2-9802068df812);
      }

      .ca0f8b9e-bb70-426c-b0df-e4c022479767 {
        clip-path: url(#22367cb3-0954-4d42-bd60-8a42ee008e8f);
      }

      .\36 b822b8b-45e3-4bfd-ae97-475f9754078a {
        fill: #865a28;
      }

      .d9efea03-6c52-41ae-ac84-e9997d01c738 {
        clip-path: url(#471d1481-8bc7-48d0-b9bc-fcaaa6b01062);
      }

      .\33 23d4001-369d-4c1f-aaef-564323e64da7 {
        fill: #835827;
      }

      .bf747f9d-2d0f-4e61-8e42-a7d429b83352 {
        clip-path: url(#f5fdb522-7584-416b-8eee-c8fe2e7549c6);
      }

      .cbe7b856-57ed-40da-8915-cbe5cbcda568 {
        clip-path: url(#66f3506d-0322-4cb6-b5b4-d185a37e1f40);
      }

      .\38 ddc452e-7a3b-46e6-8501-2c5f64ff6a37 {
        clip-path: url(#2760c7bc-8ed9-4878-9049-764634f2ab7f);
      }

      .\31 3d4c852-1f2e-4ea8-83f1-fa99372fe82d {
        fill: #855a28;
      }

      .\34 518bade-d346-4332-83c3-b1f6a3373e99 {
        clip-path: url(#7a8ba073-7b56-49a8-8476-ac605b62d032);
      }

      .f0c84e10-ee8e-405a-9714-9b8bdc89707b {
        fill: #714b1e;
      }

      .\34 710297d-a37a-4a82-ba63-acd62d2d0e8e {
        clip-path: url(#7b7db01b-fe38-4d7f-ae46-cf6d66d361bd);
      }

      .a3383a44-ae9c-45cd-8b98-829742fbdf11 {
        clip-path: url(#16383f7a-1551-40f0-a787-4166629d641b);
      }

      .\38 860f847-bfb5-4cf2-b539-7c52949e9022 {
        clip-path: url(#fee950eb-7a43-4f2e-9306-a961c419b378);
      }

      .\31 f962a2a-1a76-4482-a6af-99a33c2eed24 {
        clip-path: url(#e2987239-d5a1-4579-9bf1-50d44a2fcc56);
      }

      .f052adc7-20fc-4241-93ed-1aff6ebcd738 {
        clip-path: url(#af493571-e251-4435-8f83-56d01ac78856);
      }

      .f41ec4a3-df36-40cd-a638-843c0f007466 {
        clip-path: url(#e3699e1d-55fb-4ddc-a9bb-0c0f71fa5ecb);
      }

      .\31 f1edb0e-ebd6-4e0a-a6a8-138d015846e5 {
        fill: #825826;
      }

      .\30 77a4203-2aaa-448d-890b-fd17a87819ef {
        fill: #734d1f;
      }

      .b8d9e5d8-7d8f-4ce1-b801-4f998c4b54bf {
        clip-path: url(#13dca873-12c9-4797-b6bb-9b34340499de);
      }
    </style>
    <clipPath id="84c08910-be90-46a9-a284-8a0e43f92b17" transform="translate(0)">
      <path class="59f6ae84-5b4a-4dac-8418-976773ae6349" d="M441.76,15.21l-3.88,22.12c-5.74,1.44-12.54,3-20.23,4.73-34.1,7.53-76,15-76.42,15.12l3.88-22.12c.42-.07,42.33-7.59,76.42-15.12C429.22,18.24,436,16.65,441.76,15.21Z"/>
    </clipPath>
    <clipPath id="ee209f0b-0c88-44fb-91dc-b82a9bcc10bb" transform="translate(0)">
      <path class="59f6ae84-5b4a-4dac-8418-976773ae6349" d="M369.75,66.33a9.91,9.91,0,0,0-1.15.13l3.88-22.12a9.9,9.9,0,0,1,1.15-.13Z"/>
    </clipPath>
    <clipPath id="70f86a09-149f-4c76-9ad5-1362c9814d97" transform="translate(0)">
      <path class="59f6ae84-5b4a-4dac-8418-976773ae6349" d="M368.6,66.46l-.34.07,3.88-22.12.34-.07Z"/>
    </clipPath>
    <clipPath id="86a96d73-2143-4da3-ad73-36ec2f840980" transform="translate(0)">
      <path class="59f6ae84-5b4a-4dac-8418-976773ae6349" d="M368.25,66.53l-.5.13,3.88-22.12.5-.13Z"/>
    </clipPath>
    <clipPath id="a3455b16-0483-4cbf-ae8e-578ae229676a" transform="translate(0)">
      <path class="59f6ae84-5b4a-4dac-8418-976773ae6349" d="M367.75,66.66c-2.17.62-3.55,2-3.83,3.52l3.88-22.12c.28-1.57,1.66-2.91,3.83-3.52Z"/>
    </clipPath>
    <clipPath id="98ab2c90-4fd9-465c-b252-5d91d730a4cd" transform="translate(0)">
      <path class="59f6ae84-5b4a-4dac-8418-976773ae6349" d="M355.9,47.37,352,69.48a8.07,8.07,0,0,0-1.72.59L354.18,48A8.07,8.07,0,0,1,355.9,47.37Z"/>
    </clipPath>
    <clipPath id="e799e4b1-72ff-4394-aabb-f06b7a0135c1" transform="translate(0)">
      <path class="59f6ae84-5b4a-4dac-8418-976773ae6349" d="M366.23,51.06l-3.88,22.12-.16-.26c-1.73-2.64-6-4.19-9.82-3.51l-.35.07,3.88-22.12.35-.07c3.78-.69,8.09.87,9.82,3.51Z"/>
    </clipPath>
    <clipPath id="28fe57b9-2f5b-4780-b3b2-d718efcceefa" transform="translate(0)">
      <path class="59f6ae84-5b4a-4dac-8418-976773ae6349" d="M383,50.72l-3.88,22.12c-.27,1.52-1.57,2.81-3.61,3.46-.25.08-.51.15-.78.21l-.28.06,3.88-22.12.28-.06c.27-.06.53-.13.78-.21C381.42,53.53,382.72,52.23,383,50.72Z"/>
    </clipPath>
    <clipPath id="dca4358b-644d-4505-ad1f-70aef7af4a1c" transform="translate(0)">
      <path class="59f6ae84-5b4a-4dac-8418-976773ae6349" d="M362.88,75.79a3.84,3.84,0,0,0-.53-2.61l3.88-22.12a3.84,3.84,0,0,1,.53,2.61Z"/>
    </clipPath>
    <clipPath id="8145e281-82c8-463e-ac61-aa3f94b75680" transform="translate(0)">
      <path class="59f6ae84-5b4a-4dac-8418-976773ae6349" d="M363.92,70.19l3.88-22.12a3.84,3.84,0,0,0,.53,2.61l.16.26c1.74,2.63,6,4.19,9.83,3.5l-3.88,22.12c-3.78.69-8.09-.87-9.83-3.5l-.16-.26A3.84,3.84,0,0,1,363.92,70.19Z"/>
    </clipPath>
    <clipPath id="86e3d1ee-e629-41b3-bca2-9802068df812" transform="translate(0)">
      <path class="59f6ae84-5b4a-4dac-8418-976773ae6349" d="M366.76,53.67l-3.88,22.12c-.29,1.65-1.8,3-4.16,3.61l-.17,0-.35.07,3.88-22.12.35-.07.17,0C365,56.72,366.47,55.33,366.76,53.67Z"/>
    </clipPath>
    <clipPath id="22367cb3-0954-4d42-bd60-8a42ee008e8f" transform="translate(0)">
      <path class="59f6ae84-5b4a-4dac-8418-976773ae6349" d="M347.7,73.14,351.57,51a3.85,3.85,0,0,0,.53,2.61c1.3,2.24,4.42,3.75,7.62,3.91a10.67,10.67,0,0,0,2.36-.14l-3.88,22.12a10.67,10.67,0,0,1-2.36.14c-3.2-.15-6.32-1.67-7.62-3.91A3.85,3.85,0,0,1,347.7,73.14Z"/>
    </clipPath>
    <clipPath id="471d1481-8bc7-48d0-b9bc-fcaaa6b01062" transform="translate(0)">
      <path class="59f6ae84-5b4a-4dac-8418-976773ae6349" d="M245.3,51.2l-3.88,22.12c-26,4.45-103,14.3-103.81,14.4l3.88-22.12C142.27,65.5,219.26,55.65,245.3,51.2Z"/>
    </clipPath>
    <clipPath id="f5fdb522-7584-416b-8eee-c8fe2e7549c6" transform="translate(0)">
      <path class="59f6ae84-5b4a-4dac-8418-976773ae6349" d="M69.16,91,65.28,113.1c-34.27.35-53.22-7.27-56.9-8.91l3.88-22.12C15.94,83.72,34.89,91.33,69.16,91Z"/>
    </clipPath>
    <clipPath id="66f3506d-0322-4cb6-b5b4-d185a37e1f40" transform="translate(0)">
      <path class="59f6ae84-5b4a-4dac-8418-976773ae6349" d="M71.15,93.18l-3.88,22.12a200.2,200.2,0,0,1-27.54.39l3.88-22.12A200.2,200.2,0,0,0,71.15,93.18Z"/>
    </clipPath>
    <clipPath id="2760c7bc-8ed9-4878-9049-764634f2ab7f" transform="translate(0)">
      <path class="59f6ae84-5b4a-4dac-8418-976773ae6349" d="M15.16,118.42,19,96.3a2.77,2.77,0,0,1,2-2.49l.26,0-3.88,22.12-.26,0A2.77,2.77,0,0,0,15.16,118.42Z"/>
    </clipPath>
    <clipPath id="7a8ba073-7b56-49a8-8476-ac605b62d032" transform="translate(0)">
      <path class="59f6ae84-5b4a-4dac-8418-976773ae6349" d="M73.39,99.21l-3.88,22.12a139.36,139.36,0,0,0-14,2.31,84.23,84.23,0,0,0-9.27,2.55l3.88-22.12a84.23,84.23,0,0,1,9.27-2.55A139.36,139.36,0,0,1,73.39,99.21Z"/>
    </clipPath>
    <clipPath id="7b7db01b-fe38-4d7f-ae46-cf6d66d361bd" transform="translate(0)">
      <path class="59f6ae84-5b4a-4dac-8418-976773ae6349" d="M29.3,100.65l-3.88,22.12a14.57,14.57,0,0,0-3.86-5.17,6,6,0,0,0-4.13-1.71l3.88-22.12a6,6,0,0,1,4.13,1.71A14.57,14.57,0,0,1,29.3,100.65Z"/>
    </clipPath>
    <clipPath id="16383f7a-1551-40f0-a787-4166629d641b" transform="translate(0)">
      <path class="59f6ae84-5b4a-4dac-8418-976773ae6349" d="M30.26,106.09,26.38,128.2a9.74,9.74,0,0,0-1-5.44l3.88-22.12A9.74,9.74,0,0,1,30.26,106.09Z"/>
    </clipPath>
    <clipPath id="fee950eb-7a43-4f2e-9306-a961c419b378" transform="translate(0)">
      <path class="59f6ae84-5b4a-4dac-8418-976773ae6349" d="M73.7,100.8l-3.88,22.12-.34.07c-3.39.75-30.83,7.18-44.35,21.39L29,122.26c13.52-14.21,41-20.64,44.35-21.39Z"/>
    </clipPath>
    <clipPath id="e2987239-d5a1-4579-9bf1-50d44a2fcc56" transform="translate(0)">
      <path class="59f6ae84-5b4a-4dac-8418-976773ae6349" d="M75.9,103.48,72,125.6c-10.2,2.78-21.4,7-21.51,7.07l3.88-22.12C54.5,110.52,65.7,106.27,75.9,103.48Z"/>
    </clipPath>
    <clipPath id="af493571-e251-4435-8f83-56d01ac78856" transform="translate(0)">
      <path class="59f6ae84-5b4a-4dac-8418-976773ae6349" d="M31.26,106.23l-3.88,22.12a3.39,3.39,0,0,1-2.59,3l-.38.06a7.12,7.12,0,0,1-5.16-2A15.4,15.4,0,0,1,15.17,124a10.1,10.1,0,0,1-1-5.68L18,96.17a10.1,10.1,0,0,0,1,5.68,15.4,15.4,0,0,0,4.08,5.44,7.12,7.12,0,0,0,5.16,2l.38-.06A3.39,3.39,0,0,0,31.26,106.23Z"/>
    </clipPath>
    <clipPath id="e3699e1d-55fb-4ddc-a9bb-0c0f71fa5ecb" transform="translate(0)">
      <path class="59f6ae84-5b4a-4dac-8418-976773ae6349" d="M28.2,122.23l-3.88,22.12c-.21-.18-21-18.55-16.83-40.82l3.88-22.12C7.17,103.68,28,122.05,28.2,122.23Z"/>
    </clipPath>
    <clipPath id="13dca873-12c9-4797-b6bb-9b34340499de" transform="translate(0)">
      <path class="59f6ae84-5b4a-4dac-8418-976773ae6349" d="M.58,102,4.45,79.91C-.46,108,27.61,127.79,28.14,128.16l-3.88,22.12C23.73,149.9-4.34,130.08.58,102Z"/>
    </clipPath>
  </defs>
  <title>pier_left</title>
  <g id="d463912e-6964-4b4c-b474-1df040a832c6" data-name="Layer 2">
    <g id="e8617388-1539-47f6-81f8-7b4fd269fb7f" data-name="Layer 1">
      <g class="5f7e812c-1e4b-4616-a1c1-a53869f11d2a">
        <polygon class="ba35fcc2-774a-4014-bd6c-0ce294f380d9" points="330.92 0.84 327.04 22.96 314.52 25.38 318.4 3.26 330.92 0.84"/>
        <polygon class="4d2d568a-c936-4726-848e-db9949f2e2eb" points="335.28 9.34 331.41 31.45 327.04 22.96 330.92 0.84 335.28 9.34"/>
        <polygon class="a02cd324-2508-4e4d-bb5b-6d07ce1ffb04" points="336.51 9.77 332.63 31.88 328.71 32.93 332.58 10.82 336.51 9.77"/>
        <polygon class="ba35fcc2-774a-4014-bd6c-0ce294f380d9" points="324.98 12.11 321.1 34.23 318.52 34.62 322.39 12.5 324.98 12.11"/>
        <polygon class="4d2d568a-c936-4726-848e-db9949f2e2eb" points="322.39 12.5 318.52 34.62 313.25 24.9 317.12 2.78 322.39 12.5"/>
        <polygon class="4d2d568a-c936-4726-848e-db9949f2e2eb" points="327.18 15.87 323.3 37.99 321.1 34.23 324.98 12.11 327.18 15.87"/>
        <polygon class="fe4fe893-4e9a-4cd3-89f8-ff49e6a5882a" points="329.29 15.59 325.42 37.71 323.3 37.99 327.18 15.87 329.29 15.59"/>
        <polygon class="a02cd324-2508-4e4d-bb5b-6d07ce1ffb04" points="392.06 37 388.18 59.12 386.83 59.41 390.71 37.29 392.06 37"/>
        <g class="5f7e812c-1e4b-4616-a1c1-a53869f11d2a">
          <g class="f00d1abb-d552-48b3-9e3a-86f569d952a2">
            <g class="5f7e812c-1e4b-4616-a1c1-a53869f11d2a">
              <path class="587e6024-f39d-48a4-a11a-f8dcc54ee218" d="M441.76,15.21l-3.88,22.12c-5.74,1.44-12.54,3-20.23,4.73-34.1,7.53-76,15-76.42,15.12l3.88-22.12c.42-.07,42.33-7.59,76.42-15.12,7.69-1.7,14.49-3.29,20.23-4.73" transform="translate(0)"/>
            </g>
          </g>
        </g>
        <polygon class="4d2d568a-c936-4726-848e-db9949f2e2eb" points="390.71 37.29 386.83 59.41 383.62 54.39 387.5 32.27 390.71 37.29"/>
        <polygon class="a02cd324-2508-4e4d-bb5b-6d07ce1ffb04" points="387.24 38.07 383.36 60.19 382.02 60.48 385.89 38.36 387.24 38.07"/>
        <polygon class="a1d660f4-74c1-4168-9cc0-f4b2fbc3c2bc" points="382.67 33.35 384.03 33.05 387.24 38.07 385.89 38.36 382.67 33.35"/>
        <polygon class="4d2d568a-c936-4726-848e-db9949f2e2eb" points="385.89 38.36 382.02 60.48 378.8 55.46 382.67 33.35 385.89 38.36"/>
        <polygon class="4d2d568a-c936-4726-848e-db9949f2e2eb" points="380.71 39.47 376.83 61.58 373.62 56.57 377.49 34.45 380.71 39.47"/>
        <polygon class="a1d660f4-74c1-4168-9cc0-f4b2fbc3c2bc" points="377.49 34.45 378.85 34.16 382.06 39.18 380.71 39.47 377.49 34.45"/>
        <polygon class="ba35fcc2-774a-4014-bd6c-0ce294f380d9" points="382.06 39.18 378.18 61.3 376.83 61.58 380.71 39.47 382.06 39.18"/>
        <polygon class="4d2d568a-c936-4726-848e-db9949f2e2eb" points="345.11 35.05 341.24 57.17 327.47 32.51 331.34 10.39 345.11 35.05"/>
        <polygon class="4d2d568a-c936-4726-848e-db9949f2e2eb" points="375.76 40.53 371.88 62.65 368.66 57.63 372.54 35.51 375.76 40.53"/>
        <polygon class="a02cd324-2508-4e4d-bb5b-6d07ce1ffb04" points="377.1 40.24 373.23 62.35 371.88 62.65 375.76 40.53 377.1 40.24"/>
        <polygon class="a64d9266-41dc-4d23-8d11-04b8c5546878" points="470.86 57.36 466.98 79.48 437.89 37.32 441.76 15.21 470.86 57.36"/>
        <polygon class="4d2d568a-c936-4726-848e-db9949f2e2eb" points="339.82 34.72 335.95 56.84 325.42 37.71 329.29 15.59 339.82 34.72"/>
        <polygon class="4d2d568a-c936-4726-848e-db9949f2e2eb" points="370.35 41.68 366.47 63.8 363.25 58.78 367.13 36.66 370.35 41.68"/>
        <polygon class="ba35fcc2-774a-4014-bd6c-0ce294f380d9" points="371.71 41.4 367.83 63.51 366.47 63.8 370.35 41.68 371.71 41.4"/>
        <polygon class="4d2d568a-c936-4726-848e-db9949f2e2eb" points="365.17 42.79 361.3 64.91 358.08 59.89 361.96 37.77 365.17 42.79"/>
        <polygon class="a02cd324-2508-4e4d-bb5b-6d07ce1ffb04" points="366.52 42.5 362.65 64.62 361.3 64.91 365.17 42.79 366.52 42.5"/>
        <g class="5f7e812c-1e4b-4616-a1c1-a53869f11d2a">
          <g class="aef8c9c4-de50-43ea-ac13-c6956f02f5db">
            <g class="5f7e812c-1e4b-4616-a1c1-a53869f11d2a">
              <path class="7083d3b7-7709-43af-90f8-a6b150ab0216" d="M373.62,44.21l-3.88,22.12a10.37,10.37,0,0,0-1,.11l3.88-22.12a10.37,10.37,0,0,1,1-.11" transform="translate(0)"/>
              <path class="587e6024-f39d-48a4-a11a-f8dcc54ee218" d="M372.58,44.33,368.7,66.44l-.11,0-.34.07-.5.13a7,7,0,0,0-1.84.8l3.88-22.12a7,7,0,0,1,1.84-.8l.5-.13.34-.07.11,0" transform="translate(0)"/>
            </g>
          </g>
        </g>
        <g class="5f7e812c-1e4b-4616-a1c1-a53869f11d2a">
          <g class="fc262b53-048a-45b5-8d64-e5017de3c537">
            <g class="5f7e812c-1e4b-4616-a1c1-a53869f11d2a">
              <path class="587e6024-f39d-48a4-a11a-f8dcc54ee218" d="M372.58,44.33,368.7,66.44l-.11,0-.34.07-.5.13a7,7,0,0,0-1.84.8l3.88-22.12a7,7,0,0,1,1.84-.8l.5-.13.34-.07.11,0" transform="translate(0)"/>
            </g>
          </g>
        </g>
        <g class="5f7e812c-1e4b-4616-a1c1-a53869f11d2a">
          <g class="28556d55-d08c-474d-a128-38550a30030f">
            <g class="5f7e812c-1e4b-4616-a1c1-a53869f11d2a">
              <path class="587e6024-f39d-48a4-a11a-f8dcc54ee218" d="M372.58,44.33,368.7,66.44l-.11,0-.34.07-.5.13a7,7,0,0,0-1.84.8l3.88-22.12a7,7,0,0,1,1.84-.8l.5-.13.34-.07.11,0" transform="translate(0)"/>
            </g>
          </g>
        </g>
        <polygon class="ba35fcc2-774a-4014-bd6c-0ce294f380d9" points="235.22 16.61 231.34 38.73 219.86 40.75 223.74 18.63 235.22 16.61"/>
        <polygon class="a1d660f4-74c1-4168-9cc0-f4b2fbc3c2bc" points="357.79 38.66 359.14 38.38 362.36 43.39 361 43.68 357.79 38.66"/>
        <polygon class="ba35fcc2-774a-4014-bd6c-0ce294f380d9" points="362.36 43.39 358.48 65.51 357.13 65.8 361 43.68 362.36 43.39"/>
        <polygon class="4d2d568a-c936-4726-848e-db9949f2e2eb" points="361 43.68 357.13 65.8 353.92 60.78 357.79 38.66 361 43.68"/>
        <polygon class="ba35fcc2-774a-4014-bd6c-0ce294f380d9" points="429 42.26 425.13 64.37 385.56 72.45 389.43 50.33 429 42.26"/>
        <polygon class="4d2d568a-c936-4726-848e-db9949f2e2eb" points="389.43 50.33 385.56 72.45 384.77 71.2 388.65 49.08 389.43 50.33"/>
        <g class="5f7e812c-1e4b-4616-a1c1-a53869f11d2a">
          <g class="fa8f5b2c-cc02-45a5-a957-6e0ed92763b2">
            <g class="5f7e812c-1e4b-4616-a1c1-a53869f11d2a">
              <path class="587e6024-f39d-48a4-a11a-f8dcc54ee218" d="M372.58,44.33,368.7,66.44l-.11,0-.34.07-.5.13a7,7,0,0,0-1.84.8l3.88-22.12a7,7,0,0,1,1.84-.8l.5-.13.34-.07.11,0" transform="translate(0)"/>
              <path class="7083d3b7-7709-43af-90f8-a6b150ab0216" d="M369.79,45.34l-3.88,22.12a5,5,0,0,0-1.11.94l3.88-22.12a5,5,0,0,1,1.11-.94" transform="translate(0)"/>
              <path class="46ef256a-ccbe-489c-93d3-050f675a464f" d="M368.68,46.28,364.8,68.4a4,4,0,0,0-.54.79l3.88-22.12a4,4,0,0,1,.54-.79" transform="translate(0)"/>
              <path class="02b056e9-126b-406c-adba-583b7a0f90a3" d="M368.14,47.07l-3.88,22.12A3.51,3.51,0,0,0,364,70l3.88-22.12a3.51,3.51,0,0,1,.29-.78" transform="translate(0)"/>
              <path class="a347b760-5479-4555-8ad8-37881a8c48db" d="M367.84,47.85,364,70q0,.11,0,.22l3.88-22.12q0-.11,0-.22" transform="translate(0)"/>
            </g>
          </g>
        </g>
        <polygon class="4d2d568a-c936-4726-848e-db9949f2e2eb" points="354.18 47.95 350.3 70.07 349.45 68.59 353.32 46.47 354.18 47.95"/>
        <g class="5f7e812c-1e4b-4616-a1c1-a53869f11d2a">
          <g class="238524e6-9f33-4b40-ac7a-734da1ec9651">
            <g class="5f7e812c-1e4b-4616-a1c1-a53869f11d2a">
              <path class="587e6024-f39d-48a4-a11a-f8dcc54ee218" d="M355.9,47.37,352,69.48a8.07,8.07,0,0,0-1.72.59L354.18,48a8.07,8.07,0,0,1,1.72-.59" transform="translate(0)"/>
            </g>
          </g>
        </g>
        <g class="5f7e812c-1e4b-4616-a1c1-a53869f11d2a">
          <g class="013a5f1a-cdb6-4a00-b2be-1762b6b81154">
            <g class="5f7e812c-1e4b-4616-a1c1-a53869f11d2a">
              <path class="85771b24-0bcd-4de9-8b16-a58e9d3bd75f" d="M366.23,51.06l-3.88,22.12-.16-.26a7.48,7.48,0,0,0-2.83-2.42l3.88-22.12a7.48,7.48,0,0,1,2.83,2.42l.16.26" transform="translate(0)"/>
              <path class="3a26b62d-158d-4ed4-882b-364825b97f14" d="M363.24,48.38,359.37,70.5a10.51,10.51,0,0,0-1.3-.57l3.88-22.12a10.51,10.51,0,0,1,1.3.57" transform="translate(0)"/>
              <path class="a347b760-5479-4555-8ad8-37881a8c48db" d="M361.95,47.81l-3.88,22.12a11.35,11.35,0,0,0-1.19-.36l3.88-22.12a11.35,11.35,0,0,1,1.19.36" transform="translate(0)"/>
              <path class="02b056e9-126b-406c-adba-583b7a0f90a3" d="M360.75,47.46l-3.88,22.12a11.59,11.59,0,0,0-1.21-.22l3.88-22.12a11.59,11.59,0,0,1,1.21.22" transform="translate(0)"/>
              <path class="46ef256a-ccbe-489c-93d3-050f675a464f" d="M359.54,47.23l-3.88,22.12a11.3,11.3,0,0,0-1.34-.09l3.88-22.12a11.3,11.3,0,0,1,1.34.09" transform="translate(0)"/>
              <path class="7083d3b7-7709-43af-90f8-a6b150ab0216" d="M358.2,47.14l-3.88,22.12a10.38,10.38,0,0,0-1.88.15l3.88-22.12a10.38,10.38,0,0,1,1.88-.15" transform="translate(0)"/>
              <path class="587e6024-f39d-48a4-a11a-f8dcc54ee218" d="M356.32,47.29,352.45,69.4h-.08l-.35.07,3.88-22.12.35-.07h.08" transform="translate(0)"/>
            </g>
          </g>
        </g>
        <g class="5f7e812c-1e4b-4616-a1c1-a53869f11d2a">
          <g class="f5a00bdc-3411-4a79-b96a-c6fc7f67a4fa">
            <g class="5f7e812c-1e4b-4616-a1c1-a53869f11d2a">
              <path class="a347b760-5479-4555-8ad8-37881a8c48db" d="M383,50.72l-3.88,22.12q0,.11,0,.22l3.88-22.12q0-.11,0-.22" transform="translate(0)"/>
              <path class="02b056e9-126b-406c-adba-583b7a0f90a3" d="M382.94,50.94l-3.88,22.12a3.49,3.49,0,0,1-.29.77l3.88-22.12a3.49,3.49,0,0,0,.29-.77" transform="translate(0)"/>
              <path class="46ef256a-ccbe-489c-93d3-050f675a464f" d="M382.65,51.71l-3.88,22.12a4,4,0,0,1-.54.79l3.88-22.12a4,4,0,0,0,.54-.79" transform="translate(0)"/>
              <path class="7083d3b7-7709-43af-90f8-a6b150ab0216" d="M382.11,52.5l-3.88,22.12a5,5,0,0,1-1.11.94L381,53.44a5,5,0,0,0,1.11-.94" transform="translate(0)"/>
              <path class="587e6024-f39d-48a4-a11a-f8dcc54ee218" d="M381,53.44l-3.88,22.12a7,7,0,0,1-1.62.74c-.25.08-.51.15-.78.21l-.28.06,3.88-22.12.28-.06c.27-.06.53-.13.78-.21a7,7,0,0,0,1.62-.74" transform="translate(0)"/>
            </g>
          </g>
        </g>
        <g class="5f7e812c-1e4b-4616-a1c1-a53869f11d2a">
          <g class="cf74b9ab-fb5d-4267-808e-5b4c0682e4ce">
            <g class="5f7e812c-1e4b-4616-a1c1-a53869f11d2a">
              <path class="85771b24-0bcd-4de9-8b16-a58e9d3bd75f" d="M366.76,53.67l-3.88,22.12a3.84,3.84,0,0,0-.53-2.61l3.88-22.12a3.84,3.84,0,0,1,.53,2.61" transform="translate(0)"/>
            </g>
          </g>
        </g>
        <polygon class="4d2d568a-c936-4726-848e-db9949f2e2eb" points="242.8 31.95 238.93 54.07 231.34 38.73 235.22 16.61 242.8 31.95"/>
        <g class="5f7e812c-1e4b-4616-a1c1-a53869f11d2a">
          <g class="65dcf420-8be6-49e7-96f1-ed80d9efaf99">
            <g class="5f7e812c-1e4b-4616-a1c1-a53869f11d2a">
              <path class="587e6024-f39d-48a4-a11a-f8dcc54ee218" d="M378.32,54.44l-3.88,22.12-.1,0,3.88-22.12.1,0" transform="translate(0)"/>
              <path class="7083d3b7-7709-43af-90f8-a6b150ab0216" d="M378.22,54.46l-3.88,22.12a10.39,10.39,0,0,1-1.85.14l3.88-22.12a10.39,10.39,0,0,0,1.85-.14" transform="translate(0)"/>
              <path class="46ef256a-ccbe-489c-93d3-050f675a464f" d="M376.37,54.6l-3.88,22.12a11.31,11.31,0,0,1-1.34-.09L375,54.51a11.31,11.31,0,0,0,1.34.09" transform="translate(0)"/>
              <path class="02b056e9-126b-406c-adba-583b7a0f90a3" d="M375,54.51l-3.88,22.12a11.6,11.6,0,0,1-1.21-.22l3.88-22.12a11.6,11.6,0,0,0,1.21.22" transform="translate(0)"/>
              <path class="a347b760-5479-4555-8ad8-37881a8c48db" d="M373.81,54.29,369.93,76.4a11.37,11.37,0,0,1-1.2-.36l3.88-22.12a11.37,11.37,0,0,0,1.2.36" transform="translate(0)"/>
              <path class="3a26b62d-158d-4ed4-882b-364825b97f14" d="M372.61,53.93,368.74,76a10.53,10.53,0,0,1-1.3-.57l3.88-22.12a10.53,10.53,0,0,0,1.3.57" transform="translate(0)"/>
              <path class="85771b24-0bcd-4de9-8b16-a58e9d3bd75f" d="M371.31,53.36l-3.88,22.12a7.51,7.51,0,0,1-2.83-2.42l-.16-.26a3.84,3.84,0,0,1-.53-2.61l3.88-22.12a3.84,3.84,0,0,0,.53,2.61l.16.26a7.51,7.51,0,0,0,2.83,2.42" transform="translate(0)"/>
            </g>
          </g>
        </g>
        <polygon class="a02cd324-2508-4e4d-bb5b-6d07ce1ffb04" points="244.03 32.43 240.16 54.54 237.91 55.04 241.79 32.92 244.03 32.43"/>
        <g class="5f7e812c-1e4b-4616-a1c1-a53869f11d2a">
          <g class="b57614c0-09ad-4cbc-a15e-c5e1cb6a79c5">
            <g class="5f7e812c-1e4b-4616-a1c1-a53869f11d2a">
              <path class="a347b760-5479-4555-8ad8-37881a8c48db" d="M366.76,53.67l-3.88,22.12q0,.11,0,.22l3.88-22.12q0-.11,0-.22" transform="translate(0)"/>
              <path class="02b056e9-126b-406c-adba-583b7a0f90a3" d="M366.71,53.9,362.84,76a3.51,3.51,0,0,1-.29.78l3.88-22.12a3.51,3.51,0,0,0,.29-.78" transform="translate(0)"/>
              <path class="46ef256a-ccbe-489c-93d3-050f675a464f" d="M366.42,54.67l-3.88,22.12a4,4,0,0,1-.54.79l3.88-22.12a4,4,0,0,0,.54-.79" transform="translate(0)"/>
              <path class="7083d3b7-7709-43af-90f8-a6b150ab0216" d="M365.88,55.46,362,77.58a5,5,0,0,1-1.12.94l3.88-22.12a5,5,0,0,0,1.12-.94" transform="translate(0)"/>
              <path class="587e6024-f39d-48a4-a11a-f8dcc54ee218" d="M364.77,56.4l-3.88,22.12a7.25,7.25,0,0,1-2.17.89l-.17,0-.35.07,3.88-22.12.35-.07.17,0a7.25,7.25,0,0,0,2.17-.89" transform="translate(0)"/>
            </g>
          </g>
        </g>
        <polygon class="a02cd324-2508-4e4d-bb5b-6d07ce1ffb04" points="234.15 33.76 230.27 55.88 228.02 56.75 231.89 34.63 234.15 33.76"/>
        <polygon class="4d2d568a-c936-4726-848e-db9949f2e2eb" points="231.89 34.63 228.02 56.75 218.56 40.25 222.44 18.13 231.89 34.63"/>
        <g class="5f7e812c-1e4b-4616-a1c1-a53869f11d2a">
          <g class="ca0f8b9e-bb70-426c-b0df-e4c022479767">
            <g class="5f7e812c-1e4b-4616-a1c1-a53869f11d2a">
              <path class="587e6024-f39d-48a4-a11a-f8dcc54ee218" d="M362.08,57.4l-3.88,22.12h-.07L362,57.41h.07" transform="translate(0)"/>
              <path class="7083d3b7-7709-43af-90f8-a6b150ab0216" d="M362,57.41l-3.88,22.12a10.54,10.54,0,0,1-1.87.14l3.88-22.12a10.54,10.54,0,0,0,1.87-.14" transform="translate(0)"/>
              <path class="46ef256a-ccbe-489c-93d3-050f675a464f" d="M360.14,57.55l-3.88,22.12h-.42q-.47,0-.93-.08l3.88-22.12q.46.06.93.08h.42" transform="translate(0)"/>
              <path class="02b056e9-126b-406c-adba-583b7a0f90a3" d="M358.79,57.46l-3.88,22.12a11.62,11.62,0,0,1-1.21-.22l3.88-22.12a11.62,11.62,0,0,0,1.21.22" transform="translate(0)"/>
              <path class="a347b760-5479-4555-8ad8-37881a8c48db" d="M357.57,57.23,353.7,79.35a11.39,11.39,0,0,1-1.2-.36l3.88-22.12a11.39,11.39,0,0,0,1.2.36" transform="translate(0)"/>
              <path class="3a26b62d-158d-4ed4-882b-364825b97f14" d="M356.38,56.87,352.5,79a10.53,10.53,0,0,1-1.29-.57l3.88-22.12a10.53,10.53,0,0,0,1.29.57" transform="translate(0)"/>
              <path class="85771b24-0bcd-4de9-8b16-a58e9d3bd75f" d="M355.08,56.31l-3.88,22.12a7.27,7.27,0,0,1-3-2.68,3.85,3.85,0,0,1-.53-2.61L351.57,51a3.85,3.85,0,0,0,.53,2.61,7.27,7.27,0,0,0,3,2.68" transform="translate(0)"/>
            </g>
          </g>
        </g>
        <polygon class="4d2d568a-c936-4726-848e-db9949f2e2eb" points="360.9 59.57 357.02 81.68 355.84 79.65 359.72 57.54 360.9 59.57"/>
        <polygon class="ba35fcc2-774a-4014-bd6c-0ce294f380d9" points="380.45 56.02 376.57 78.13 357.02 81.68 360.9 59.57 380.45 56.02"/>
        <polygon class="ba35fcc2-774a-4014-bd6c-0ce294f380d9" points="472.22 57.83 468.34 79.95 401.88 92.59 405.76 70.47 472.22 57.83"/>
        <polygon class="ba35fcc2-774a-4014-bd6c-0ce294f380d9" points="341.1 35.23 337.23 57.34 245.84 73.04 249.71 50.92 341.1 35.23"/>
        <polygon class="ba35fcc2-774a-4014-bd6c-0ce294f380d9" points="299.95 53.91 296.07 76.03 294.68 76.25 298.56 54.13 299.95 53.91"/>
        <polygon class="4d2d568a-c936-4726-848e-db9949f2e2eb" points="298.56 54.13 294.68 76.25 291.97 71.14 295.85 49.02 298.56 54.13"/>
        <polygon class="4d2d568a-c936-4726-848e-db9949f2e2eb" points="293.59 54.95 289.71 77.07 287 71.96 290.88 49.84 293.59 54.95"/>
        <polygon class="ba35fcc2-774a-4014-bd6c-0ce294f380d9" points="294.98 54.73 291.1 76.85 289.71 77.07 293.59 54.95 294.98 54.73"/>
        <polygon class="ba35fcc2-774a-4014-bd6c-0ce294f380d9" points="289.65 55.57 285.77 77.69 284.37 77.91 288.25 55.79 289.65 55.57"/>
        <polygon class="4d2d568a-c936-4726-848e-db9949f2e2eb" points="288.25 55.79 284.37 77.91 281.67 72.8 285.54 50.68 288.25 55.79"/>
        <polygon class="4d2d568a-c936-4726-848e-db9949f2e2eb" points="283.15 56.59 279.27 78.71 276.56 73.6 280.44 51.48 283.15 56.59"/>
        <polygon class="ba35fcc2-774a-4014-bd6c-0ce294f380d9" points="284.54 56.37 280.66 78.49 279.27 78.71 283.15 56.59 284.54 56.37"/>
        <polygon class="4d2d568a-c936-4726-848e-db9949f2e2eb" points="249.71 50.92 245.84 73.04 236.68 54.57 240.56 32.45 249.71 50.92"/>
        <polygon class="4d2d568a-c936-4726-848e-db9949f2e2eb" points="244.01 50.7 240.13 72.82 230.27 55.88 234.15 33.76 244.01 50.7"/>
        <polygon class="4d2d568a-c936-4726-848e-db9949f2e2eb" points="277.58 57.47 273.71 79.59 271 74.47 274.87 52.35 277.58 57.47"/>
        <polygon class="ba35fcc2-774a-4014-bd6c-0ce294f380d9" points="278.97 57.25 275.1 79.37 273.71 79.59 277.58 57.47 278.97 57.25"/>
        <polygon class="4d2d568a-c936-4726-848e-db9949f2e2eb" points="272.25 58.31 268.37 80.42 265.66 75.31 269.54 53.19 272.25 58.31"/>
        <polygon class="ba35fcc2-774a-4014-bd6c-0ce294f380d9" points="273.64 58.09 269.76 80.2 268.37 80.42 272.25 58.31 273.64 58.09"/>
        <polygon class="4d2d568a-c936-4726-848e-db9949f2e2eb" points="267.96 58.98 264.08 81.1 261.37 75.98 265.25 53.87 267.96 58.98"/>
        <polygon class="ba35fcc2-774a-4014-bd6c-0ce294f380d9" points="269.35 58.76 265.47 80.88 264.08 81.1 267.96 58.98 269.35 58.76"/>
        <polygon class="fe4fe893-4e9a-4cd3-89f8-ff49e6a5882a" points="129.57 32.51 125.69 54.62 112.86 56.09 116.73 33.97 129.57 32.51"/>
        <polygon class="ba35fcc2-774a-4014-bd6c-0ce294f380d9" points="400.59 71.58 396.71 93.7 341.85 103.63 345.73 81.52 400.59 71.58"/>
        <polygon class="4d2d568a-c936-4726-848e-db9949f2e2eb" points="135.16 47.08 131.28 69.19 125.69 54.62 129.57 32.51 135.16 47.08"/>
        <polygon class="a02cd324-2508-4e4d-bb5b-6d07ce1ffb04" points="136.31 47.49 132.43 69.61 130.75 70.16 134.63 48.04 136.31 47.49"/>
        <polygon class="4d2d568a-c936-4726-848e-db9949f2e2eb" points="421.35 98.62 417.47 120.74 400.58 92.11 404.46 70 421.35 98.62"/>
        <polygon class="a02cd324-2508-4e4d-bb5b-6d07ce1ffb04" points="425.18 97.78 421.31 119.89 417.47 120.74 421.35 98.62 425.18 97.78"/>
        <polygon class="ba35fcc2-774a-4014-bd6c-0ce294f380d9" points="335.18 60.75 331.31 82.87 263.6 94.58 267.48 72.46 335.18 60.75"/>
        <polygon class="4d2d568a-c936-4726-848e-db9949f2e2eb" points="267.48 72.46 263.6 94.58 262.26 92.17 266.13 70.05 267.48 72.46"/>
        <polygon class="4d2d568a-c936-4726-848e-db9949f2e2eb" points="417.36 98.75 413.48 120.86 396.71 93.7 400.59 71.58 417.36 98.75"/>
        <polygon class="6b822b8b-45e3-4bfd-ae97-475f9754078a" points="126.78 48.63 122.91 70.74 120.5 70.91 124.38 48.8 126.78 48.63"/>
        <polygon class="4d2d568a-c936-4726-848e-db9949f2e2eb" points="124.38 48.8 120.5 70.91 111.52 55.54 115.4 33.43 124.38 48.8"/>
        <polygon class="ba35fcc2-774a-4014-bd6c-0ce294f380d9" points="418.68 99.23 414.8 121.34 409.54 122.33 413.41 100.21 418.68 99.23"/>
        <polygon class="4d2d568a-c936-4726-848e-db9949f2e2eb" points="430.89 106.5 427.01 128.61 421.31 119.89 425.18 97.78 430.89 106.5"/>
        <g class="5f7e812c-1e4b-4616-a1c1-a53869f11d2a">
          <g class="d9efea03-6c52-41ae-ac84-e9997d01c738">
            <g class="5f7e812c-1e4b-4616-a1c1-a53869f11d2a">
              <path class="587e6024-f39d-48a4-a11a-f8dcc54ee218" d="M245.3,51.2l-3.88,22.12-.49.08,3.88-22.12.49-.08" transform="translate(0)"/>
              <path class="7083d3b7-7709-43af-90f8-a6b150ab0216" d="M244.82,51.29,240.94,73.4c-26.5,4.48-102.56,14.21-103.32,14.32l3.88-22.12c.77-.1,76.83-9.83,103.32-14.32" transform="translate(0)"/>
            </g>
          </g>
        </g>
        <polygon class="ba35fcc2-774a-4014-bd6c-0ce294f380d9" points="202.44 67.06 198.56 89.18 197.17 89.4 201.05 67.28 202.44 67.06"/>
        <polygon class="4d2d568a-c936-4726-848e-db9949f2e2eb" points="201.05 67.28 197.17 89.4 194.46 84.29 198.34 62.17 201.05 67.28"/>
        <polygon class="ba35fcc2-774a-4014-bd6c-0ce294f380d9" points="197.47 67.89 193.59 90 192.2 90.22 196.08 68.11 197.47 67.89"/>
        <polygon class="4d2d568a-c936-4726-848e-db9949f2e2eb" points="196.08 68.11 192.2 90.22 189.49 85.11 193.37 62.99 196.08 68.11"/>
        <polygon class="4d2d568a-c936-4726-848e-db9949f2e2eb" points="190.74 68.95 186.87 91.06 184.16 85.95 188.03 63.83 190.74 68.95"/>
        <polygon class="ba35fcc2-774a-4014-bd6c-0ce294f380d9" points="192.13 68.73 188.25 90.84 186.87 91.06 190.74 68.95 192.13 68.73"/>
        <polygon class="6b822b8b-45e3-4bfd-ae97-475f9754078a" points="356.96 99.09 353.09 121.2 350.86 121.32 354.74 99.21 356.96 99.09"/>
        <polygon class="4d2d568a-c936-4726-848e-db9949f2e2eb" points="354.74 99.21 350.86 121.32 340.56 103.14 344.44 81.03 354.74 99.21"/>
        <polygon class="4d2d568a-c936-4726-848e-db9949f2e2eb" points="185.64 69.75 181.76 91.86 179.05 86.75 182.93 64.63 185.64 69.75"/>
        <polygon class="ba35fcc2-774a-4014-bd6c-0ce294f380d9" points="187.03 69.53 183.15 91.64 181.76 91.86 185.64 69.75 187.03 69.53"/>
        <polygon class="ba35fcc2-774a-4014-bd6c-0ce294f380d9" points="181.46 70.41 177.59 92.52 176.19 92.73 180.07 70.62 181.46 70.41"/>
        <polygon class="4d2d568a-c936-4726-848e-db9949f2e2eb" points="180.07 70.62 176.19 92.73 173.48 87.63 177.36 65.51 180.07 70.62"/>
        <polygon class="4d2d568a-c936-4726-848e-db9949f2e2eb" points="141.49 65.6 137.62 87.72 129.59 69.75 133.46 47.64 141.49 65.6"/>
        <polygon class="ba35fcc2-774a-4014-bd6c-0ce294f380d9" points="176.13 71.24 172.25 93.36 170.86 93.57 174.73 71.46 176.13 71.24"/>
        <polygon class="4d2d568a-c936-4726-848e-db9949f2e2eb" points="174.73 71.46 170.86 93.57 168.15 88.46 172.03 66.35 174.73 71.46"/>
        <polygon class="fe4fe893-4e9a-4cd3-89f8-ff49e6a5882a" points="31.98 42.98 28.11 65.1 16.82 66.65 20.7 44.54 31.98 42.98"/>
        <polygon class="ba35fcc2-774a-4014-bd6c-0ce294f380d9" points="340.99 82.52 337.11 104.64 281.71 114.14 285.59 92.03 340.99 82.52"/>
        <polygon class="4d2d568a-c936-4726-848e-db9949f2e2eb" points="170.44 72.14 166.56 94.25 163.85 89.14 167.73 67.02 170.44 72.14"/>
        <polygon class="ba35fcc2-774a-4014-bd6c-0ce294f380d9" points="171.84 71.92 167.96 94.03 166.56 94.25 170.44 72.14 171.84 71.92"/>
        <polygon class="4d2d568a-c936-4726-848e-db9949f2e2eb" points="133.69 65.99 129.81 88.11 122.91 70.74 126.78 48.63 133.69 65.99"/>
        <polygon class="fe4fe893-4e9a-4cd3-89f8-ff49e6a5882a" points="363.09 105.72 359.22 127.83 356.87 128.17 360.74 106.05 363.09 105.72"/>
        <polygon class="4d2d568a-c936-4726-848e-db9949f2e2eb" points="360.74 106.05 356.87 128.17 353.09 121.2 356.96 99.09 360.74 106.05"/>
        <polygon class="ba35fcc2-774a-4014-bd6c-0ce294f380d9" points="166.72 72.72 162.84 94.84 161.45 95.05 165.32 72.94 166.72 72.72"/>
        <polygon class="4d2d568a-c936-4726-848e-db9949f2e2eb" points="165.32 72.94 161.45 95.05 158.74 89.94 162.62 67.83 165.32 72.94"/>
        <polygon class="4d2d568a-c936-4726-848e-db9949f2e2eb" points="353.82 106.34 349.94 128.46 337.11 104.64 340.99 82.52 353.82 106.34"/>
        <polygon class="4d2d568a-c936-4726-848e-db9949f2e2eb" points="158.96 73.94 155.08 96.05 152.37 90.94 156.25 68.83 158.96 73.94"/>
        <polygon class="ba35fcc2-774a-4014-bd6c-0ce294f380d9" points="160.35 73.72 156.47 95.84 155.08 96.05 158.96 73.94 160.35 73.72"/>
        <polygon class="a02cd324-2508-4e4d-bb5b-6d07ce1ffb04" points="355.06 106.77 351.18 128.89 346.8 130.04 350.68 107.93 355.06 106.77"/>
        <polygon class="4d2d568a-c936-4726-848e-db9949f2e2eb" points="36.95 54.29 33.07 76.41 28.11 65.1 31.98 42.98 36.95 54.29"/>
        <polygon class="ba35fcc2-774a-4014-bd6c-0ce294f380d9" points="38.17 54.8 34.29 76.92 30.14 77.64 34.02 55.53 38.17 54.8"/>
        <polygon class="4d2d568a-c936-4726-848e-db9949f2e2eb" points="368.19 114.97 364.32 137.09 359.22 127.83 363.09 105.72 368.19 114.97"/>
        <polygon class="fe4fe893-4e9a-4cd3-89f8-ff49e6a5882a" points="236.19 75.57 232.32 97.69 163.59 107.45 167.47 85.33 236.19 75.57"/>
        <polygon class="ba35fcc2-774a-4014-bd6c-0ce294f380d9" points="231.46 94.58 227.58 116.69 226.18 116.92 230.06 94.8 231.46 94.58"/>
        <polygon class="4d2d568a-c936-4726-848e-db9949f2e2eb" points="230.06 94.8 226.18 116.92 223.47 111.8 227.35 89.68 230.06 94.8"/>
        <polygon class="4d2d568a-c936-4726-848e-db9949f2e2eb" points="167.47 85.33 163.59 107.45 162.37 105.02 166.24 82.9 167.47 85.33"/>
        <polygon class="4d2d568a-c936-4726-848e-db9949f2e2eb" points="225.09 95.62 221.21 117.73 218.51 112.62 222.38 90.51 225.09 95.62"/>
        <polygon class="ba35fcc2-774a-4014-bd6c-0ce294f380d9" points="226.49 95.4 222.61 117.51 221.21 117.73 225.09 95.62 226.49 95.4"/>
        <polygon class="a02cd324-2508-4e4d-bb5b-6d07ce1ffb04" points="31.12 60.96 27.24 83.08 24.84 83.61 28.71 61.49 31.12 60.96"/>
        <polygon class="4d2d568a-c936-4726-848e-db9949f2e2eb" points="28.71 61.49 24.84 83.61 15.54 66.13 19.41 44.01 28.71 61.49"/>
        <polygon class="4d2d568a-c936-4726-848e-db9949f2e2eb" points="219.76 96.45 215.88 118.57 213.17 113.46 217.04 91.35 219.76 96.45"/>
        <polygon class="ba35fcc2-774a-4014-bd6c-0ce294f380d9" points="221.15 96.23 217.27 118.35 215.88 118.57 219.76 96.45 221.15 96.23"/>
        <polygon class="4d2d568a-c936-4726-848e-db9949f2e2eb" points="293.73 109.55 289.85 131.67 280.45 113.64 284.33 91.53 293.73 109.55"/>
        <polygon class="6b822b8b-45e3-4bfd-ae97-475f9754078a" points="295.19 109.42 291.32 131.53 289.85 131.67 293.73 109.55 295.19 109.42"/>
        <polygon class="ba35fcc2-774a-4014-bd6c-0ce294f380d9" points="216.04 97.04 212.17 119.15 210.77 119.37 214.65 97.26 216.04 97.04"/>
        <polygon class="4d2d568a-c936-4726-848e-db9949f2e2eb" points="214.65 97.26 210.77 119.37 208.06 114.26 211.94 92.15 214.65 97.26"/>
        <polygon class="ba35fcc2-774a-4014-bd6c-0ce294f380d9" points="210.47 97.91 206.6 120.03 205.21 120.25 209.09 98.13 210.47 97.91"/>
        <polygon class="4d2d568a-c936-4726-848e-db9949f2e2eb" points="209.09 98.13 205.21 120.25 202.5 115.14 206.38 93.02 209.09 98.13"/>
        <polygon class="ba35fcc2-774a-4014-bd6c-0ce294f380d9" points="205.14 98.75 201.26 120.87 199.87 121.09 203.75 98.97 205.14 98.75"/>
        <polygon class="4d2d568a-c936-4726-848e-db9949f2e2eb" points="203.75 98.97 199.87 121.09 197.16 115.98 201.04 93.86 203.75 98.97"/>
        <polygon class="4d2d568a-c936-4726-848e-db9949f2e2eb" points="291.18 115.32 287.31 137.43 275.98 114.8 279.86 92.68 291.18 115.32"/>
        <polygon class="ba35fcc2-774a-4014-bd6c-0ce294f380d9" points="200.85 99.43 196.97 121.54 195.58 121.76 199.46 99.65 200.85 99.43"/>
        <polygon class="4d2d568a-c936-4726-848e-db9949f2e2eb" points="199.46 99.65 195.58 121.76 192.87 116.65 196.75 94.53 199.46 99.65"/>
        <polygon class="fe4fe893-4e9a-4cd3-89f8-ff49e6a5882a" points="292.44 115.85 288.57 137.97 284.32 138.54 288.2 116.42 292.44 115.85"/>
        <polygon class="ba35fcc2-774a-4014-bd6c-0ce294f380d9" points="195.74 100.23 191.86 122.35 190.46 122.57 194.34 100.45 195.74 100.23"/>
        <polygon class="4d2d568a-c936-4726-848e-db9949f2e2eb" points="194.34 100.45 190.46 122.57 187.76 117.46 191.63 95.34 194.34 100.45"/>
        <polygon class="4d2d568a-c936-4726-848e-db9949f2e2eb" points="187.97 101.45 184.09 123.57 181.39 118.46 185.26 96.34 187.97 101.45"/>
        <polygon class="ba35fcc2-774a-4014-bd6c-0ce294f380d9" points="189.36 101.23 185.48 123.35 184.09 123.57 187.97 101.45 189.36 101.23"/>
        <polygon class="4d2d568a-c936-4726-848e-db9949f2e2eb" points="42.02 76.98 38.15 99.09 28.94 77.14 32.82 55.02 42.02 76.98"/>
        <polygon class="fe4fe893-4e9a-4cd3-89f8-ff49e6a5882a" points="134.9 66.56 131.02 88.67 38.15 99.09 42.02 76.98 134.9 66.56"/>
        <polygon class="4d2d568a-c936-4726-848e-db9949f2e2eb" points="36.67 76.45 32.8 98.57 27.24 83.08 31.12 60.96 36.67 76.45"/>
        <polygon class="4d2d568a-c936-4726-848e-db9949f2e2eb" points="303.75 124.37 299.87 146.49 291.32 131.53 295.19 109.42 303.75 124.37"/>
        <polygon class="fe4fe893-4e9a-4cd3-89f8-ff49e6a5882a" points="13.94 74.93 10.06 97.05 2.56 97.92 6.43 75.8 13.94 74.93"/>
        <polygon class="fe4fe893-4e9a-4cd3-89f8-ff49e6a5882a" points="37.86 77 33.98 99.12 13.13 101.74 17 79.62 37.86 77"/>
        <polygon class="4d2d568a-c936-4726-848e-db9949f2e2eb" points="17 79.62 13.13 101.74 10.06 97.05 13.94 74.93 17 79.62"/>
        <polygon class="fe4fe893-4e9a-4cd3-89f8-ff49e6a5882a" points="279.86 92.68 275.98 114.8 171.22 129.68 175.1 107.57 279.86 92.68"/>
        <polygon class="323d4001-369d-4c1f-aaef-564323e64da7" points="68.71 88.82 64.83 110.93 39.52 109.26 43.39 87.15 68.71 88.82"/>
        <polygon class="4d2d568a-c936-4726-848e-db9949f2e2eb" points="43.39 87.15 39.52 109.26 39.47 108.6 43.34 86.48 43.39 87.15"/>
        <polygon class="4d2d568a-c936-4726-848e-db9949f2e2eb" points="70.38 92.55 66.51 114.66 64.83 110.93 68.71 88.82 70.38 92.55"/>
        <polygon class="6b822b8b-45e3-4bfd-ae97-475f9754078a" points="71.64 93.13 67.77 115.25 67.27 115.29 71.15 93.17 71.64 93.13"/>
        <polygon class="4d2d568a-c936-4726-848e-db9949f2e2eb" points="147.51 107.41 143.64 129.52 141.05 124.39 144.93 102.27 147.51 107.41"/>
        <polygon class="fe4fe893-4e9a-4cd3-89f8-ff49e6a5882a" points="148.92 107.21 145.04 129.32 143.64 129.52 147.51 107.41 148.92 107.21"/>
        <polygon class="4d2d568a-c936-4726-848e-db9949f2e2eb" points="82.66 96.95 78.79 119.07 77.57 116.64 81.45 94.53 82.66 96.95"/>
        <polygon class="fe4fe893-4e9a-4cd3-89f8-ff49e6a5882a" points="138.51 89.03 134.63 111.14 78.79 119.07 82.66 96.95 138.51 89.03"/>
        <polygon class="4d2d568a-c936-4726-848e-db9949f2e2eb" points="142.51 108.17 138.64 130.29 136.06 125.15 139.93 103.04 142.51 108.17"/>
        <polygon class="ba35fcc2-774a-4014-bd6c-0ce294f380d9" points="143.91 107.97 140.04 130.08 138.64 130.29 142.51 108.17 143.91 107.97"/>
        <polygon class="ba35fcc2-774a-4014-bd6c-0ce294f380d9" points="138.54 108.74 134.67 130.86 133.27 131.06 137.14 108.94 138.54 108.74"/>
        <polygon class="4d2d568a-c936-4726-848e-db9949f2e2eb" points="137.14 108.94 133.27 131.06 130.69 125.93 134.56 103.81 137.14 108.94"/>
        <g class="5f7e812c-1e4b-4616-a1c1-a53869f11d2a">
          <g class="bf747f9d-2d0f-4e61-8e42-a7d429b83352">
            <g class="5f7e812c-1e4b-4616-a1c1-a53869f11d2a">
              <path class="7083d3b7-7709-43af-90f8-a6b150ab0216" d="M69.16,91,65.28,113.1q-2.35,0-4.61,0L64.55,91q2.25,0,4.61,0" transform="translate(0)"/>
              <path class="46ef256a-ccbe-489c-93d3-050f675a464f" d="M64.55,91,60.68,113.1A191.72,191.72,0,0,1,38,111.56l3.88-22.12A191.72,191.72,0,0,0,64.55,91" transform="translate(0)"/>
              <path class="02b056e9-126b-406c-adba-583b7a0f90a3" d="M41.84,89.45,38,111.56a146.6,146.6,0,0,1-15.3-2.79l3.88-22.12a146.6,146.6,0,0,0,15.3,2.79" transform="translate(0)"/>
              <path class="a347b760-5479-4555-8ad8-37881a8c48db" d="M26.53,86.66l-3.88,22.12a101,101,0,0,1-10.59-3.12l3.88-22.12a101,101,0,0,0,10.59,3.12" transform="translate(0)"/>
              <path class="3a26b62d-158d-4ed4-882b-364825b97f14" d="M15.94,83.54l-3.88,22.12c-1.76-.64-3-1.15-3.68-1.46l3.88-22.12c.69.31,1.92.83,3.68,1.46" transform="translate(0)"/>
            </g>
          </g>
        </g>
        <g class="5f7e812c-1e4b-4616-a1c1-a53869f11d2a">
          <g class="cbe7b856-57ed-40da-8915-cbe5cbcda568">
            <g class="5f7e812c-1e4b-4616-a1c1-a53869f11d2a">
              <path class="7083d3b7-7709-43af-90f8-a6b150ab0216" d="M71.15,93.18l-3.88,22.12c-7.55.62-14.33.73-19.27.67l3.88-22.12c4.94.05,11.72-.05,19.27-.67" transform="translate(0)"/>
              <path class="46ef256a-ccbe-489c-93d3-050f675a464f" d="M51.88,93.85,48,116c-5.07-.05-8.21-.28-8.27-.28l3.88-22.12c.06,0,3.2.23,8.27.28" transform="translate(0)"/>
            </g>
          </g>
        </g>
        <polygon class="4d2d568a-c936-4726-848e-db9949f2e2eb" points="43.61 93.57 39.73 115.68 39.7 115.01 43.58 92.9 43.61 93.57"/>
        <polygon class="ba35fcc2-774a-4014-bd6c-0ce294f380d9" points="133.41 109.48 129.53 131.6 128.13 131.8 132.01 109.68 133.41 109.48"/>
        <polygon class="4d2d568a-c936-4726-848e-db9949f2e2eb" points="132.01 109.68 128.13 131.8 125.55 126.67 129.43 104.55 132.01 109.68"/>
        <polygon class="4d2d568a-c936-4726-848e-db9949f2e2eb" points="126.41 110.49 122.53 132.6 119.94 127.47 123.82 105.36 126.41 110.49"/>
        <polygon class="ba35fcc2-774a-4014-bd6c-0ce294f380d9" points="127.8 110.29 123.93 132.4 122.53 132.6 126.41 110.49 127.8 110.29"/>
        <polygon class="4d2d568a-c936-4726-848e-db9949f2e2eb" points="75.06 102.95 71.19 125.07 69.51 121.33 73.39 99.21 75.06 102.95"/>
        <polygon class="4d2d568a-c936-4726-848e-db9949f2e2eb" points="121.04 111.26 117.16 133.38 114.57 128.25 118.45 106.13 121.04 111.26"/>
        <polygon class="ba35fcc2-774a-4014-bd6c-0ce294f380d9" points="122.44 111.06 118.56 133.18 117.16 133.38 121.04 111.26 122.44 111.06"/>
        <polygon class="a02cd324-2508-4e4d-bb5b-6d07ce1ffb04" points="76.25 103.39 72.38 125.5 72.03 125.6 75.9 103.48 76.25 103.39"/>
        <polygon class="4d2d568a-c936-4726-848e-db9949f2e2eb" points="116.72 111.89 112.84 134.01 110.26 128.87 114.14 106.76 116.72 111.89"/>
        <polygon class="ba35fcc2-774a-4014-bd6c-0ce294f380d9" points="118.12 111.69 114.24 133.8 112.84 134.01 116.72 111.89 118.12 111.69"/>
        <g class="5f7e812c-1e4b-4616-a1c1-a53869f11d2a">
          <g class="8ddc452e-7a3b-46e6-8501-2c5f64ff6a37">
            <g class="5f7e812c-1e4b-4616-a1c1-a53869f11d2a">
              <path class="7083d3b7-7709-43af-90f8-a6b150ab0216" d="M21.31,93.77l-3.88,22.12-.16,0,3.88-22.12.16,0" transform="translate(0)"/>
              <path class="587e6024-f39d-48a4-a11a-f8dcc54ee218" d="M21.15,93.79l-3.88,22.12-.1,0a2.3,2.3,0,0,0-.72.29l3.88-22.12a2.3,2.3,0,0,1,.72-.29l.1,0" transform="translate(0)"/>
              <path class="7083d3b7-7709-43af-90f8-a6b150ab0216" d="M20.32,94.11l-3.88,22.12a2.33,2.33,0,0,0-.52.45L19.8,94.56a2.33,2.33,0,0,1,.52-.45" transform="translate(0)"/>
              <path class="46ef256a-ccbe-489c-93d3-050f675a464f" d="M19.8,94.56l-3.88,22.12a2.84,2.84,0,0,0-.38.57l3.88-22.12a2.84,2.84,0,0,1,.38-.57" transform="translate(0)"/>
              <path class="02b056e9-126b-406c-adba-583b7a0f90a3" d="M19.42,95.13l-3.88,22.12a3.88,3.88,0,0,0-.31.86L19.1,96a3.88,3.88,0,0,1,.31-.86" transform="translate(0)"/>
              <path class="a347b760-5479-4555-8ad8-37881a8c48db" d="M19.1,96,15.23,118.1q0,.15-.07.32L19,96.3q0-.16.07-.32" transform="translate(0)"/>
            </g>
          </g>
        </g>
        <polygon class="4d2d568a-c936-4726-848e-db9949f2e2eb" points="182.1 125.31 178.22 147.42 169.98 129.15 173.86 107.03 182.1 125.31"/>
        <polygon class="13d4c852-1f2e-4ea8-83f1-fa99372fe82d" points="185.13 125.19 181.26 147.31 178.22 147.42 182.1 125.31 185.13 125.19"/>
        <polygon class="4d2d568a-c936-4726-848e-db9949f2e2eb" points="175.56 125.73 171.68 147.85 163.16 130.28 167.03 108.16 175.56 125.73"/>
        <g class="5f7e812c-1e4b-4616-a1c1-a53869f11d2a">
          <g class="4518bade-d346-4332-83c3-b1f6a3373e99">
            <g class="5f7e812c-1e4b-4616-a1c1-a53869f11d2a">
              <path class="7083d3b7-7709-43af-90f8-a6b150ab0216" d="M73.39,99.21l-3.88,22.12c-1.09.12-4,.46-7.71,1.09l3.88-22.12c3.71-.63,6.62-1,7.71-1.09" transform="translate(0)"/>
              <path class="587e6024-f39d-48a4-a11a-f8dcc54ee218" d="M65.68,100.3,61.8,122.42c-1.93.33-4.07.73-6.29,1.22a84.23,84.23,0,0,0-9.27,2.55l3.88-22.12a84.23,84.23,0,0,1,9.27-2.55c2.22-.49,4.36-.89,6.29-1.22" transform="translate(0)"/>
            </g>
          </g>
        </g>
        <polygon class="f0c84e10-ee8e-405a-9714-9b8bdc89707b" points="50.12 104.08 46.25 126.19 45.71 125.58 49.58 103.47 50.12 104.08"/>
        <polygon class="fe4fe893-4e9a-4cd3-89f8-ff49e6a5882a" points="167.03 108.16 163.16 130.28 109.28 137.45 113.16 115.33 167.03 108.16"/>
        <g class="5f7e812c-1e4b-4616-a1c1-a53869f11d2a">
          <g class="4710297d-a37a-4a82-ba63-acd62d2d0e8e">
            <g class="5f7e812c-1e4b-4616-a1c1-a53869f11d2a">
              <path class="85771b24-0bcd-4de9-8b16-a58e9d3bd75f" d="M29.3,100.65l-3.88,22.12a14.57,14.57,0,0,0-3.86-5.17,9.27,9.27,0,0,0-1.63-1.11L23.8,94.37a9.27,9.27,0,0,1,1.63,1.11,14.57,14.57,0,0,1,3.86,5.17" transform="translate(0)"/>
              <path class="3a26b62d-158d-4ed4-882b-364825b97f14" d="M23.8,94.37l-3.88,22.12a6.47,6.47,0,0,0-.79-.35L23,94a6.47,6.47,0,0,1,.79.35" transform="translate(0)"/>
              <path class="a347b760-5479-4555-8ad8-37881a8c48db" d="M23,94l-3.88,22.12a5,5,0,0,0-.53-.16l3.88-22.12A5,5,0,0,1,23,94" transform="translate(0)"/>
              <path class="02b056e9-126b-406c-adba-583b7a0f90a3" d="M22.48,93.86,18.61,116l-.43-.08,3.88-22.12.43.08" transform="translate(0)"/>
              <path class="46ef256a-ccbe-489c-93d3-050f675a464f" d="M22.06,93.78,18.18,115.9l-.4,0,3.88-22.12.4,0" transform="translate(0)"/>
              <path class="7083d3b7-7709-43af-90f8-a6b150ab0216" d="M21.66,93.75l-3.88,22.12-.35,0,3.88-22.12.35,0" transform="translate(0)"/>
            </g>
          </g>
        </g>
        <polygon class="a02cd324-2508-4e4d-bb5b-6d07ce1ffb04" points="176.78 126.2 172.91 148.32 169.97 148.96 173.85 126.85 176.78 126.2"/>
        <g class="5f7e812c-1e4b-4616-a1c1-a53869f11d2a">
          <g class="a3383a44-ae9c-45cd-8b98-829742fbdf11">
            <g class="5f7e812c-1e4b-4616-a1c1-a53869f11d2a">
              <path class="85771b24-0bcd-4de9-8b16-a58e9d3bd75f" d="M30.26,106.09,26.38,128.2a9.74,9.74,0,0,0-1-5.44l3.88-22.12a9.74,9.74,0,0,1,1,5.44" transform="translate(0)"/>
            </g>
          </g>
        </g>
        <g class="5f7e812c-1e4b-4616-a1c1-a53869f11d2a">
          <g class="8860f847-bfb5-4cf2-b539-7c52949e9022">
            <g class="5f7e812c-1e4b-4616-a1c1-a53869f11d2a">
              <path class="587e6024-f39d-48a4-a11a-f8dcc54ee218" d="M73.7,100.8l-3.88,22.12-.34.07c-2.7.6-20.68,4.8-34.72,13.68l3.88-22.12c14-8.88,32-13.09,34.72-13.68l.34-.07" transform="translate(0)"/>
              <path class="7083d3b7-7709-43af-90f8-a6b150ab0216" d="M38.64,114.55l-3.88,22.12a50.67,50.67,0,0,0-9.64,7.71L29,122.26a50.67,50.67,0,0,1,9.64-7.71" transform="translate(0)"/>
            </g>
          </g>
        </g>
        <polygon class="f0c84e10-ee8e-405a-9714-9b8bdc89707b" points="54.39 110.56 50.51 132.67 49.95 132.07 53.82 109.96 54.39 110.56"/>
        <g class="5f7e812c-1e4b-4616-a1c1-a53869f11d2a">
          <g class="1f962a2a-1a76-4482-a6af-99a33c2eed24">
            <g class="5f7e812c-1e4b-4616-a1c1-a53869f11d2a">
              <path class="587e6024-f39d-48a4-a11a-f8dcc54ee218" d="M75.9,103.48,72,125.6c-10.2,2.78-21.4,7-21.51,7.07l3.88-22.12c.11,0,11.31-4.29,21.51-7.07" transform="translate(0)"/>
            </g>
          </g>
        </g>
        <g class="5f7e812c-1e4b-4616-a1c1-a53869f11d2a">
          <g class="f052adc7-20fc-4241-93ed-1aff6ebcd738">
            <g class="5f7e812c-1e4b-4616-a1c1-a53869f11d2a">
              <path class="a347b760-5479-4555-8ad8-37881a8c48db" d="M31.26,106.23l-3.88,22.12q0,.18-.07.34l3.88-22.12q0-.17.07-.34" transform="translate(0)"/>
              <path class="02b056e9-126b-406c-adba-583b7a0f90a3" d="M31.18,106.58l-3.88,22.12a4.36,4.36,0,0,1-.36,1l3.88-22.12a4.36,4.36,0,0,0,.36-1" transform="translate(0)"/>
              <path class="46ef256a-ccbe-489c-93d3-050f675a464f" d="M30.83,107.54,27,129.66a3.43,3.43,0,0,1-.46.68l3.88-22.12a3.43,3.43,0,0,0,.46-.68" transform="translate(0)"/>
              <path class="7083d3b7-7709-43af-90f8-a6b150ab0216" d="M30.37,108.23l-3.88,22.12a3,3,0,0,1-.68.58l3.88-22.12a3,3,0,0,0,.68-.58" transform="translate(0)"/>
              <path class="587e6024-f39d-48a4-a11a-f8dcc54ee218" d="M29.69,108.81l-3.88,22.12a3.22,3.22,0,0,1-1,.41l-.17,0,3.88-22.12.17,0a3.22,3.22,0,0,0,1-.41" transform="translate(0)"/>
              <path class="7083d3b7-7709-43af-90f8-a6b150ab0216" d="M28.5,109.25l-3.88,22.12-.21,0a4.26,4.26,0,0,1-.55,0l3.88-22.12a4.26,4.26,0,0,0,.55,0l.21,0" transform="translate(0)"/>
              <path class="46ef256a-ccbe-489c-93d3-050f675a464f" d="M27.74,109.31l-3.88,22.12a4.78,4.78,0,0,1-.57,0l3.88-22.12a4.78,4.78,0,0,0,.57,0" transform="translate(0)"/>
              <path class="02b056e9-126b-406c-adba-583b7a0f90a3" d="M27.17,109.27l-3.88,22.12a5.46,5.46,0,0,1-.57-.11l3.88-22.12a5.46,5.46,0,0,0,.57.11" transform="translate(0)"/>
              <path class="a347b760-5479-4555-8ad8-37881a8c48db" d="M26.6,109.16l-3.88,22.12a6.35,6.35,0,0,1-.67-.2L25.93,109a6.35,6.35,0,0,0,.67.2" transform="translate(0)"/>
              <path class="3a26b62d-158d-4ed4-882b-364825b97f14" d="M25.93,109l-3.88,22.12a7.71,7.71,0,0,1-.94-.42L25,108.55a7.71,7.71,0,0,0,.94.42" transform="translate(0)"/>
              <path class="85771b24-0bcd-4de9-8b16-a58e9d3bd75f" d="M25,108.55l-3.88,22.12a10.54,10.54,0,0,1-1.86-1.25A15.4,15.4,0,0,1,15.17,124a10.1,10.1,0,0,1-1-5.68L18,96.17a10.1,10.1,0,0,0,1,5.68,15.4,15.4,0,0,0,4.08,5.44A10.54,10.54,0,0,0,25,108.55" transform="translate(0)"/>
            </g>
          </g>
        </g>
        <polygon class="4d2d568a-c936-4726-848e-db9949f2e2eb" points="193.79 140.69 189.91 162.81 181.26 147.31 185.13 125.19 193.79 140.69"/>
        <polygon class="4d2d568a-c936-4726-848e-db9949f2e2eb" points="118.53 132.16 114.66 154.28 108.09 136.9 111.97 114.78 118.53 132.16"/>
        <polygon class="6b822b8b-45e3-4bfd-ae97-475f9754078a" points="121.7 131.84 117.82 153.95 114.66 154.28 118.53 132.16 121.7 131.84"/>
        <polygon class="6b822b8b-45e3-4bfd-ae97-475f9754078a" points="106.98 116.04 103.1 138.15 44.21 143.52 48.09 121.4 106.98 116.04"/>
        <polygon class="6b822b8b-45e3-4bfd-ae97-475f9754078a" points="42.56 121.82 38.69 143.93 31.85 144.45 35.72 122.34 42.56 121.82"/>
        <polygon class="4d2d568a-c936-4726-848e-db9949f2e2eb" points="115.63 136.48 111.75 158.6 103.1 138.15 106.98 116.04 115.63 136.48"/>
        <g class="5f7e812c-1e4b-4616-a1c1-a53869f11d2a">
          <g class="f41ec4a3-df36-40cd-a638-843c0f007466">
            <g class="5f7e812c-1e4b-4616-a1c1-a53869f11d2a">
              <path class="85771b24-0bcd-4de9-8b16-a58e9d3bd75f" d="M28.2,122.23l-3.88,22.12c-.21-.18-21-18.55-16.83-40.82l3.88-22.12C7.17,103.68,28,122.05,28.2,122.23" transform="translate(0)"/>
            </g>
          </g>
        </g>
        <polygon class="1f1edb0e-ebd6-4e0a-a6a8-138d015846e5" points="29 122.26 25.13 144.38 24.77 144.74 28.65 122.63 29 122.26"/>
        <polygon class="077a4203-2aaa-448d-890b-fd17a87819ef" points="28.65 122.63 24.77 144.74 24.32 144.35 28.2 122.23 28.65 122.63"/>
        <polygon class="6b822b8b-45e3-4bfd-ae97-475f9754078a" points="116.88 137.1 113.01 159.22 108.55 159.46 112.42 137.34 116.88 137.1"/>
        <polygon class="4d2d568a-c936-4726-848e-db9949f2e2eb" points="34.47 126.02 30.59 148.14 30.89 143.83 34.76 121.72 34.47 126.02"/>
        <g class="5f7e812c-1e4b-4616-a1c1-a53869f11d2a">
          <g class="b8d9e5d8-7d8f-4ce1-b801-4f998c4b54bf">
            <g class="5f7e812c-1e4b-4616-a1c1-a53869f11d2a">
              <path class="85771b24-0bcd-4de9-8b16-a58e9d3bd75f" d="M28.14,128.16l-3.88,22.12C23.73,149.9-4.34,130.08.58,102L4.45,79.91C-.46,108,27.61,127.79,28.14,128.16" transform="translate(0)"/>
            </g>
          </g>
        </g>
        <polygon class="4d2d568a-c936-4726-848e-db9949f2e2eb" points="129.8 147.99 125.93 170.11 117.82 153.95 121.7 131.84 129.8 147.99"/>
        <polygon class="13d4c852-1f2e-4ea8-83f1-fa99372fe82d" points="57.19 140.31 53.31 162.43 50.49 162.49 54.36 140.38 57.19 140.31"/>
        <polygon class="4d2d568a-c936-4726-848e-db9949f2e2eb" points="54.36 140.38 50.49 162.49 43 142.94 46.87 120.82 54.36 140.38"/>
        <polygon class="4d2d568a-c936-4726-848e-db9949f2e2eb" points="59.14 144.07 55.26 166.19 53.31 162.43 57.19 140.31 59.14 144.07"/>
        <polygon class="1f1edb0e-ebd6-4e0a-a6a8-138d015846e5" points="60.77 144.26 56.9 166.38 55.26 166.19 59.14 144.07 60.77 144.26"/>
        <polygon class="4d2d568a-c936-4726-848e-db9949f2e2eb" points="52.08 144.75 48.2 166.87 38.69 143.93 42.56 121.82 52.08 144.75"/>
        <polygon class="fe4fe893-4e9a-4cd3-89f8-ff49e6a5882a" points="53.31 145.31 49.43 167.43 44.81 167.96 48.68 145.84 53.31 145.31"/>
        <polygon class="4d2d568a-c936-4726-848e-db9949f2e2eb" points="65.67 156.24 61.79 178.36 56.9 166.38 60.77 144.26 65.67 156.24"/>
        <path class="a1d660f4-74c1-4168-9cc0-f4b2fbc3c2bc" d="M472.22,57.83,405.76,70.47l16.1,27.3,3.79-.84,6.55,10-13.69,3-6.42-10.24,5.26-1L400.59,71.58l-54.87,9.93,9.62,17,2.24-.12,3.75,6.9,2.35-.34,5.79,10.53-14.36,2.78-5.66-10.74,4.37-1.15L341,82.52,285.59,92l8.75,16.78,1.43-.14,9.29,16.23-12.7,1.81-5.44-10.82,4.26-.57L279.85,92.68,175.1,107.57l7.67,17,3-.11,9.36,16.75L179.82,143l-7.17-16.66,2.91-.64L167,108.16l-53.87,7.17,6.07,16.06,3.09-.32,8.75,17.46-14.16,1.94-5.74-13.74,4.46-.25L107,116,48.09,121.4l7,18.28,2.74-.06,2,3.87,1.69.19,5.36,13.11-14,1.71-5.4-13.22,4.62-.53-9.52-22.94-6.84.52-.3,4.21-7.29,1.61c-.56-.39-31.65-22.35-22.62-52.77l8.94-1.22,3.06,4.68,19.15-2.4L31.12,61l-2.41.53L19.41,44l13.21-1.83L38.17,54.8,34,55.53,42.69,76.2l91-10.21-6.91-17.37-2.4.17-9-15.37,14.86-1.7,6,15.77-1.68.55,7,16.83C148.26,64,219.09,54.92,244,50.71l-9.86-16.95-2.26.87-9.45-16.5,13.37-2.35L244,32.43l-2.24.5,8.52,17.18,89.51-15.38L329.29,15.59l-2.12.28L325,12.11l-2.58.39-5.27-9.72L331.49,0l5,9.77-3.92,1.05,12.62,23.5c4.72-.85,43.78-7.93,75.91-15,7.87-1.74,14.82-3.37,20.64-4.83ZM421.35,98.62,404.46,70l66.4-12.63L441.76,15.21c-5.74,1.44-12.54,3-20.23,4.73-34.1,7.53-76,15-76.42,15.12L331.34,10.39l3.94-1.06L330.92.84,318.4,3.26,323,11.71l2.56-.39,2.21,3.77,2.14-.29L341.1,35.23l-91.39,15.7-9.15-18.47,2.24-.5-7.58-15.35-11.48,2,8.59,15,2.25-.86L245.3,51.2c-26,4.45-103,14.3-103.81,14.4l-8-18,1.69-.56-5.59-14.57L116.73,34,125,48.07l2.51-.18,7.41,18.66L42,77,32.82,55l4.13-.73L32,43,20.7,44.54l8.56,16.09,2.53-.56L37.86,77,17,79.62l-3.07-4.69-7.5.86c-8.33,28.55,19,49.48,21.88,51.58L34.47,126l.3-4.3,8.49-.64,10.06,24.24-4.63.53,4.85,11.87,12.13-1.47-4.89-12-1.64-.18-2-3.76-2.82.06-7.49-19.56,60.77-5.54,9.23,21.82-4.46.25,5.15,12.32L129.8,148l-8.1-16.16-3.17.33L112,114.78l55.68-7.41,9.13,18.83-2.93.65,6.62,15.41,13.32-1.56-8.66-15.49-3,.11L173.86,107l106.6-15.15,12,24-4.25.57L293,125.9l10.79-1.53-8.56-15-1.46.14-9.4-18,57.22-9.82,13.51,25.07-4.38,1.15,5,9.46L368.19,115l-5.1-9.25-2.35.33-3.78-7-2.22.12L344.44,81l56.68-10.26,17.56,28.46-5.26,1,5.59,8.91,11.88-2.62-5.71-8.72-3.83.85" transform="translate(0)"/>
        <polygon class="a1d660f4-74c1-4168-9cc0-f4b2fbc3c2bc" points="387.5 32.27 388.84 31.98 392.06 37 390.71 37.29 387.5 32.27"/>
        <polygon class="a1d660f4-74c1-4168-9cc0-f4b2fbc3c2bc" points="372.54 35.51 373.89 35.22 377.1 40.24 375.76 40.53 372.54 35.51"/>
        <polygon class="a1d660f4-74c1-4168-9cc0-f4b2fbc3c2bc" points="367.13 36.66 368.49 36.38 371.71 41.4 370.35 41.68 367.13 36.66"/>
        <polygon class="a1d660f4-74c1-4168-9cc0-f4b2fbc3c2bc" points="361.96 37.77 363.31 37.48 366.52 42.5 365.17 42.79 361.96 37.77"/>
        <polygon class="a1d660f4-74c1-4168-9cc0-f4b2fbc3c2bc" points="388.65 49.08 428.23 41 429 42.26 389.43 50.33 388.65 49.08"/>
        <path class="a1d660f4-74c1-4168-9cc0-f4b2fbc3c2bc" d="M372.13,44.42l.34-.07a9.91,9.91,0,0,1,1.15-.13c3.59-.23,7.38,1.38,8.83,3.9s.08,5.07-3.08,6.06c-.25.08-.51.15-.78.21l-.28.06c-3.78.69-8.09-.87-9.83-3.5l-.16-.26c-1.49-2.58,0-5.2,3.3-6.14Z" transform="translate(0)"/>
        <path class="a1d660f4-74c1-4168-9cc0-f4b2fbc3c2bc" d="M355.9,47.37l.35-.07c3.78-.69,8.09.87,9.82,3.51l.16.26c1.54,2.66-.08,5.37-3.63,6.22l-.17,0-.35.07a10.67,10.67,0,0,1-2.36.14c-3.2-.15-6.32-1.67-7.62-3.91s-.35-4.49,2.08-5.68A8.07,8.07,0,0,1,355.9,47.37Z" transform="translate(0)"/>
        <path class="a1d660f4-74c1-4168-9cc0-f4b2fbc3c2bc" d="M353.32,46.47l19.54-3.56.76,1.3a9.91,9.91,0,0,0-1.15.13l-.34.07-.5.13c-3.31.94-4.79,3.56-3.3,6.14l.16.26c1.74,2.63,6,4.19,9.83,3.5l.28-.06c.27-.06.53-.13.78-.21L380.45,56,360.9,59.57l-1.18-2a10.67,10.67,0,0,0,2.36-.14l.35-.07.17,0c3.55-.86,5.17-3.56,3.63-6.22l-.16-.26c-1.73-2.64-6-4.19-9.82-3.51l-.35.07a8.07,8.07,0,0,0-1.72.59Z" transform="translate(0)"/>
        <polygon class="a1d660f4-74c1-4168-9cc0-f4b2fbc3c2bc" points="295.85 49.02 297.24 48.8 299.95 53.91 298.56 54.13 295.85 49.02"/>
        <polygon class="a1d660f4-74c1-4168-9cc0-f4b2fbc3c2bc" points="290.88 49.84 292.27 49.62 294.98 54.73 293.59 54.95 290.88 49.84"/>
        <polygon class="a1d660f4-74c1-4168-9cc0-f4b2fbc3c2bc" points="285.54 50.68 286.93 50.46 289.65 55.57 288.25 55.79 285.54 50.68"/>
        <polygon class="a1d660f4-74c1-4168-9cc0-f4b2fbc3c2bc" points="280.44 51.48 281.83 51.26 284.54 56.37 283.15 56.59 280.44 51.48"/>
        <polygon class="a1d660f4-74c1-4168-9cc0-f4b2fbc3c2bc" points="274.87 52.35 276.27 52.14 278.97 57.25 277.58 57.47 274.87 52.35"/>
        <polygon class="a1d660f4-74c1-4168-9cc0-f4b2fbc3c2bc" points="269.54 53.19 270.93 52.98 273.64 58.09 272.25 58.31 269.54 53.19"/>
        <polygon class="a1d660f4-74c1-4168-9cc0-f4b2fbc3c2bc" points="265.25 53.87 266.64 53.65 269.35 58.76 267.96 58.98 265.25 53.87"/>
        <polygon class="a1d660f4-74c1-4168-9cc0-f4b2fbc3c2bc" points="266.13 70.05 333.83 58.34 335.18 60.75 267.48 72.46 266.13 70.05"/>
        <polygon class="a1d660f4-74c1-4168-9cc0-f4b2fbc3c2bc" points="198.34 62.17 199.73 61.95 202.44 67.06 201.05 67.28 198.34 62.17"/>
        <polygon class="a1d660f4-74c1-4168-9cc0-f4b2fbc3c2bc" points="193.37 62.99 194.76 62.77 197.47 67.89 196.08 68.11 193.37 62.99"/>
        <polygon class="a1d660f4-74c1-4168-9cc0-f4b2fbc3c2bc" points="188.03 63.83 189.42 63.61 192.13 68.73 190.74 68.95 188.03 63.83"/>
        <polygon class="4d2d568a-c936-4726-848e-db9949f2e2eb" points="418.51 109.97 414.64 132.09 408.22 121.84 412.09 99.73 418.51 109.97"/>
        <polygon class="a02cd324-2508-4e4d-bb5b-6d07ce1ffb04" points="432.21 106.94 428.33 129.06 414.64 132.09 418.51 109.97 432.21 106.94"/>
        <polygon class="a1d660f4-74c1-4168-9cc0-f4b2fbc3c2bc" points="182.93 64.63 184.32 64.42 187.03 69.53 185.64 69.75 182.93 64.63"/>
        <polygon class="a1d660f4-74c1-4168-9cc0-f4b2fbc3c2bc" points="177.36 65.51 178.75 65.29 181.46 70.41 180.07 70.62 177.36 65.51"/>
        <polygon class="a1d660f4-74c1-4168-9cc0-f4b2fbc3c2bc" points="172.03 66.35 173.42 66.13 176.13 71.24 174.73 71.46 172.03 66.35"/>
        <polygon class="a1d660f4-74c1-4168-9cc0-f4b2fbc3c2bc" points="167.73 67.02 169.13 66.8 171.84 71.92 170.44 72.14 167.73 67.02"/>
        <polygon class="a1d660f4-74c1-4168-9cc0-f4b2fbc3c2bc" points="162.62 67.83 164.01 67.61 166.72 72.72 165.32 72.94 162.62 67.83"/>
        <polygon class="a1d660f4-74c1-4168-9cc0-f4b2fbc3c2bc" points="156.25 68.83 157.64 68.61 160.35 73.72 158.96 73.94 156.25 68.83"/>
        <polygon class="a1d660f4-74c1-4168-9cc0-f4b2fbc3c2bc" points="227.35 89.68 228.74 89.47 231.46 94.58 230.06 94.8 227.35 89.68"/>
        <polygon class="a1d660f4-74c1-4168-9cc0-f4b2fbc3c2bc" points="166.24 82.9 234.98 73.14 236.19 75.57 167.47 85.33 166.24 82.9"/>
        <polygon class="4d2d568a-c936-4726-848e-db9949f2e2eb" points="355.1 118.23 351.22 140.35 345.57 129.61 349.44 107.5 355.1 118.23"/>
        <polygon class="ba35fcc2-774a-4014-bd6c-0ce294f380d9" points="369.46 115.45 365.58 137.57 351.22 140.35 355.1 118.23 369.46 115.45"/>
        <polygon class="a1d660f4-74c1-4168-9cc0-f4b2fbc3c2bc" points="222.38 90.51 223.77 90.29 226.49 95.4 225.09 95.62 222.38 90.51"/>
        <polygon class="a1d660f4-74c1-4168-9cc0-f4b2fbc3c2bc" points="217.04 91.35 218.44 91.12 221.15 96.23 219.76 96.45 217.04 91.35"/>
        <polygon class="a1d660f4-74c1-4168-9cc0-f4b2fbc3c2bc" points="211.94 92.15 213.33 91.93 216.04 97.04 214.65 97.26 211.94 92.15"/>
        <polygon class="a1d660f4-74c1-4168-9cc0-f4b2fbc3c2bc" points="206.38 93.02 207.77 92.8 210.47 97.91 209.09 98.13 206.38 93.02"/>
        <polygon class="a1d660f4-74c1-4168-9cc0-f4b2fbc3c2bc" points="201.04 93.86 202.43 93.64 205.14 98.75 203.75 98.97 201.04 93.86"/>
        <polygon class="a1d660f4-74c1-4168-9cc0-f4b2fbc3c2bc" points="196.75 94.53 198.14 94.32 200.85 99.43 199.46 99.65 196.75 94.53"/>
        <polygon class="a1d660f4-74c1-4168-9cc0-f4b2fbc3c2bc" points="191.63 95.34 193.03 95.12 195.74 100.23 194.34 100.45 191.63 95.34"/>
        <polygon class="a1d660f4-74c1-4168-9cc0-f4b2fbc3c2bc" points="185.26 96.34 186.65 96.12 189.36 101.23 187.97 101.45 185.26 96.34"/>
        <polygon class="fe4fe893-4e9a-4cd3-89f8-ff49e6a5882a" points="305.06 124.89 301.18 147.01 288.49 148.82 292.36 126.7 305.06 124.89"/>
        <polygon class="4d2d568a-c936-4726-848e-db9949f2e2eb" points="292.36 126.7 288.49 148.82 283.05 138 286.92 115.89 292.36 126.7"/>
        <polygon class="a1d660f4-74c1-4168-9cc0-f4b2fbc3c2bc" points="144.93 102.27 146.34 102.08 148.92 107.21 147.51 107.41 144.93 102.27"/>
        <polygon class="a1d660f4-74c1-4168-9cc0-f4b2fbc3c2bc" points="81.45 94.53 137.3 86.6 138.51 89.03 82.66 96.95 81.45 94.53"/>
        <polygon class="a1d660f4-74c1-4168-9cc0-f4b2fbc3c2bc" points="139.93 103.04 141.33 102.83 143.91 107.97 142.51 108.17 139.93 103.04"/>
        <polygon class="a1d660f4-74c1-4168-9cc0-f4b2fbc3c2bc" points="134.56 103.81 135.96 103.61 138.54 108.74 137.14 108.94 134.56 103.81"/>
        <path class="a1d660f4-74c1-4168-9cc0-f4b2fbc3c2bc" d="M43.34,86.48l26.08,1.71,2.22,4.94-.5,0a200.2,200.2,0,0,1-27.54.39l0-.67a197.88,197.88,0,0,0,26.81-.35l-1.67-3.73L43.39,87.15Z" transform="translate(0)"/>
        <polygon class="a1d660f4-74c1-4168-9cc0-f4b2fbc3c2bc" points="129.43 104.55 130.83 104.35 133.41 109.48 132.01 109.68 129.43 104.55"/>
        <polygon class="a1d660f4-74c1-4168-9cc0-f4b2fbc3c2bc" points="123.82 105.36 125.22 105.16 127.8 110.29 126.41 110.49 123.82 105.36"/>
        <polygon class="a1d660f4-74c1-4168-9cc0-f4b2fbc3c2bc" points="118.45 106.13 119.85 105.93 122.44 111.06 121.04 111.26 118.45 106.13"/>
        <polygon class="a1d660f4-74c1-4168-9cc0-f4b2fbc3c2bc" points="114.14 106.76 115.54 106.56 118.12 111.69 116.72 111.89 114.14 106.76"/>
        <path class="a1d660f4-74c1-4168-9cc0-f4b2fbc3c2bc" d="M58.95,100.89A138.39,138.39,0,0,1,73.58,98.5l.46,0,2.22,4.93-.35.1c-10.2,2.78-21.4,7-21.51,7.07l-.57-.6c.11,0,11.1-4.21,21.24-7l-1.68-3.74a139.36,139.36,0,0,0-14,2.31,84.23,84.23,0,0,0-9.27,2.55l-.54-.61A85.53,85.53,0,0,1,58.95,100.89Z" transform="translate(0)"/>
        <path class="a1d660f4-74c1-4168-9cc0-f4b2fbc3c2bc" d="M26.17,95.1a15.32,15.32,0,0,1,4.07,5.44c1.94,4.32,1.27,8.05-1.57,8.68l-.38.06a7.12,7.12,0,0,1-5.16-2,15.4,15.4,0,0,1-4.08-5.44c-1.94-4.32-1.24-8.06,1.59-8.68L21,93.1A7.17,7.17,0,0,1,26.17,95.1Zm3.13,5.55a14.57,14.57,0,0,0-3.86-5.17,6,6,0,0,0-4.13-1.71l-.26,0c-2.31.51-2.79,4.07-1.05,7.92a14.61,14.61,0,0,0,3.87,5.18,5.94,5.94,0,0,0,4.12,1.7l.26,0c2.32-.51,2.79-4.07,1.05-7.92" transform="translate(0)"/>
        <polygon class="fe4fe893-4e9a-4cd3-89f8-ff49e6a5882a" points="195.11 141.24 191.23 163.35 175.94 165.15 179.82 143.03 195.11 141.24"/>
        <polygon class="4d2d568a-c936-4726-848e-db9949f2e2eb" points="179.82 143.03 175.94 165.15 168.78 148.49 172.65 126.37 179.82 143.03"/>
        <path class="a1d660f4-74c1-4168-9cc0-f4b2fbc3c2bc" d="M11.46,80.92l.66.33c.18.1,19.08,9.45,56.89,9.07l.15.67c-34.27.35-53.22-7.27-56.9-8.91C8.82,102,25.55,118.7,28.5,121.47c13.79-14.11,41-20.5,44.44-21.25l.35-.08.41.65-.34.07c-3.39.75-30.83,7.18-44.35,21.39l-.35.36-.45-.39c-.21-.18-21-18.55-16.83-40.82Z" transform="translate(0)"/>
        <polygon class="a02cd324-2508-4e4d-bb5b-6d07ce1ffb04" points="35.43 126.55 31.55 148.66 24.26 150.27 28.14 128.16 35.43 126.55"/>
        <polygon class="fe4fe893-4e9a-4cd3-89f8-ff49e6a5882a" points="131.07 148.53 127.19 170.65 113.04 172.58 116.91 150.47 131.07 148.53"/>
        <polygon class="4d2d568a-c936-4726-848e-db9949f2e2eb" points="116.91 150.47 113.04 172.58 107.29 158.85 111.17 136.73 116.91 150.47"/>
        <polygon class="fe4fe893-4e9a-4cd3-89f8-ff49e6a5882a" points="66.88 156.79 63.01 178.91 48.99 180.62 52.87 158.5 66.88 156.79"/>
        <polygon class="4d2d568a-c936-4726-848e-db9949f2e2eb" points="52.87 158.5 48.99 180.62 43.59 167.4 47.46 145.28 52.87 158.5"/>
      </g>
    </g>
  </g>
</svg>
