<svg xmlns="http://www.w3.org/2000/svg" viewBox="0 0 198.43 131.23">
  <defs>
    <style>
      .e97a84a8-99f5-4ca6-87b0-20cd68423891 {
        isolation: isolate;
      }

      .\30 ec6a289-91bf-4173-ab23-821186a99894 {
        fill: #a7a9ad;
      }

      .d72c59c6-6abf-4ebb-ba46-cc68babcbc92 {
        fill: #898b90;
      }

      .c55e204f-95cc-4570-a5f8-de86da14d48b {
        fill: #d9dade;
      }
    </style>
  </defs>
  <title>right_step_0</title>
  <g id="9cf2d3a7-e236-4421-aa0e-732602136538" data-name="Layer 2">
    <g id="e6f8adfe-c932-4bad-a215-b6750165f2db" data-name="Layer 1">
      <g class="e97a84a8-99f5-4ca6-87b0-20cd68423891">
        <polygon class="0ec6a289-91bf-4173-ab23-821186a99894" points="70.54 63.2 64.48 84.94 30.86 92.92 36.92 71.18 70.54 63.2"/>
        <polygon class="d72c59c6-6abf-4ebb-ba46-cc68babcbc92" points="36.92 71.18 30.86 92.92 0 50.87 6.06 29.13 36.92 71.18"/>
        <polygon class="0ec6a289-91bf-4173-ab23-821186a99894" points="120.85 87.39 114.79 109.13 87.06 115.72 93.12 93.98 120.85 87.39"/>
        <polygon class="d72c59c6-6abf-4ebb-ba46-cc68babcbc92" points="93.12 93.98 87.06 115.72 64.48 84.94 70.54 63.2 93.12 93.98"/>
        <polygon class="d72c59c6-6abf-4ebb-ba46-cc68babcbc92" points="137.07 109.5 131.01 131.24 114.79 109.13 120.85 87.39 137.07 109.5"/>
        <polygon class="0ec6a289-91bf-4173-ab23-821186a99894" points="198.43 94.93 192.37 116.67 131.01 131.24 137.07 109.5 198.43 94.93"/>
        <polygon class="c55e204f-95cc-4570-a5f8-de86da14d48b" points="128.77 0 198.43 94.93 137.07 109.5 120.85 87.39 93.12 93.98 70.54 63.2 36.92 71.18 6.06 29.13 128.77 0"/>
      </g>
    </g>
  </g>
</svg>
