<svg xmlns="http://www.w3.org/2000/svg" xmlns:xlink="http://www.w3.org/1999/xlink" viewBox="0 0 572.06 503.34">
  <defs>
    <style>
      .\31 ec4a52d-74eb-4f18-8d31-c85fc06e72ac {
        fill: none;
      }

      .af105bcb-7524-450b-a482-2bce5b91f36e {
        isolation: isolate;
      }

      .\38 2a2e42d-a0db-4f84-907d-14f52b236656 {
        clip-path: url(#f8aa7615-8805-4c6f-8e1e-04cb0767e117);
      }

      .bf81401e-d5b2-42c7-819f-d9f103e09f8b {
        fill: #85878b;
      }

      .\30 2816c2a-85b3-4386-8e12-0aab55eba1ab {
        fill: #898b8e;
      }

      .\37 395dd38-12a3-4b42-aacb-25811dd6be88 {
        fill: #8c8e92;
      }

      .\39 ded0345-0f4a-4951-b13d-a7645381b233 {
        fill: #999b9f;
      }

      .\34 d8bbbaf-1188-4c4b-8b9e-5ff26acde0d6 {
        fill: #7e8084;
      }

      .\32 79e1018-6989-4040-b78e-5b38d7877303 {
        fill: #c6c7cb;
      }
    </style>
    <clipPath id="f8aa7615-8805-4c6f-8e1e-04cb0767e117">
      <path class="1ec4a52d-74eb-4f18-8d31-c85fc06e72ac" d="M568.62,95.75l-6.06,21.74c-6.22,22.3-21.57,48.44-51.7,78.4-75.49,75-119,100.71-135.42,159.49l6.06-21.74c16.38-58.77,59.93-84.44,135.42-159.49C547.06,144.2,562.41,118,568.62,95.75Z"/>
    </clipPath>
  </defs>
  <title>right_triangle_0</title>
  <g id="be8d32d4-88fa-4806-b805-04f2e1e59a04" data-name="Layer 2">
    <g id="b23ebde5-6e66-4cd7-bbb1-17e09427945f" data-name="Layer 1">
      <g class="af105bcb-7524-450b-a482-2bce5b91f36e">
        <g class="af105bcb-7524-450b-a482-2bce5b91f36e">
          <g class="82a2e42d-a0db-4f84-907d-14f52b236656">
            <g class="af105bcb-7524-450b-a482-2bce5b91f36e">
              <path class="bf81401e-d5b2-42c7-819f-d9f103e09f8b" d="M568.62,95.75l-6.06,21.74a128.11,128.11,0,0,1-12.85,29.73l6.06-21.74a128.11,128.11,0,0,0,12.85-29.73"/>
              <path class="02816c2a-85b3-4386-8e12-0aab55eba1ab" d="M555.77,125.48l-6.06,21.74c-8.64,14.91-21.21,31.14-38.85,48.67q-4,3.93-7.79,7.69l6.06-21.74q3.84-3.76,7.79-7.69c17.63-17.53,30.21-33.76,38.85-48.67"/>
              <path class="7395dd38-12a3-4b42-aacb-25811dd6be88" d="M509.13,181.84l-6.06,21.74c-28.83,28.22-52.75,49.24-72,68.08l6.06-21.74c19.28-18.84,43.2-39.86,72-68.08"/>
              <path class="02816c2a-85b3-4386-8e12-0aab55eba1ab" d="M437.1,249.92,431,271.66c-17.63,17.23-31.39,32.64-41.5,50.07L395.6,300c10.11-17.44,23.87-32.85,41.5-50.07"/>
              <path class="bf81401e-d5b2-42c7-819f-d9f103e09f8b" d="M395.6,300l-6.06,21.74a142.27,142.27,0,0,0-14.1,33.64l6.06-21.74A142.27,142.27,0,0,1,395.6,300"/>
            </g>
          </g>
        </g>
        <polygon class="9ded0345-0f4a-4951-b13d-a7645381b233" points="376.62 455.86 370.56 477.59 262.11 503.34 268.17 481.6 376.62 455.86"/>
        <polygon class="4d8bbbaf-1188-4c4b-8b9e-5ff26acde0d6" points="268.17 481.6 262.11 503.34 0 146.15 6.06 124.41 268.17 481.6"/>
        <path class="279e1018-6989-4040-b78e-5b38d7877303" d="M530.09,0c5,3.09,99.81,61.83-13.16,174.16s-154.42,114-140.31,281.7L268.17,481.6,6.06,124.41Z"/>
      </g>
    </g>
  </g>
</svg>
