<svg xmlns="http://www.w3.org/2000/svg" xmlns:xlink="http://www.w3.org/1999/xlink" viewBox="0 0 355.36 179.64">
  <defs>
    <style>
      .c57c792e-6aaf-467c-9066-e7e6ee62bc74 {
        fill: none;
      }

      .\39 1665483-441f-4956-a167-0b77c2d0f6b3 {
        isolation: isolate;
      }

      .e4494826-45da-4a10-b7a7-7bfbae1df8db {
        clip-path: url(#b9a4f222-508b-421e-b7d1-f388776120bd);
      }

      .\34 e2ec004-e82b-41d6-8b35-e8bccc583303 {
        fill: #7e8084;
      }

      .\34 ae51fbb-05e4-4fb0-9a2d-400fb9ca5cb5 {
        fill: #828488;
      }

      .\36 2b78462-fb95-48e2-9fd5-a828dd4e6441 {
        fill: #85878b;
      }

      .\38 41f854b-2187-4d6b-8d30-1e7c485586fa {
        fill: #898b8e;
      }

      .\34 d91f742-b223-40d6-9bdc-33e74bd86a29 {
        fill: #8c8e92;
      }

      .\30 356311c-34a9-47de-9a8b-ae5cb767d26d {
        fill: #8f9195;
      }

      .\39 ddbdb19-af6c-49bd-a806-73e7f5ff0192 {
        fill: #999b9f;
      }

      .\37 73232f2-bba0-426a-97b3-4bc543918e6b {
        fill: #7f8184;
      }

      .\34 7fe7482-5ebb-4fab-afd4-15647118379c {
        clip-path: url(#d7294149-a1e2-4eb7-ab8b-a9faf014ce18);
      }

      .\31 6276f2b-c71e-4594-a533-90c9eb974918 {
        clip-path: url(#9ed4a852-25c7-413b-9cb5-b773721d61e2);
      }

      .\37 c2c2f47-8a51-4376-af29-33ef391e5e76 {
        clip-path: url(#eb6fa309-56d6-49ae-b5c3-0de14479381d);
      }

      .babf2053-85fd-4909-b6ff-6717d9e1fd20 {
        fill: #7d7f82;
      }

      .\33 3c2fdcf-3985-4eb1-bffe-842beccd7f83 {
        fill: #c6c7cb;
      }
    </style>
    <clipPath id="b9a4f222-508b-421e-b7d1-f388776120bd">
      <path class="c57c792e-6aaf-467c-9066-e7e6ee62bc74" d="M12.66,102.35l6.06-21.74A73.13,73.13,0,0,1,34.23,52.07C50,33.93,74.49,20.62,105.61,13.23q5.45-1.29,11.17-2.34c27.66-5.08,58.53-5.43,89.28-1,55.51,8,100.87,29.82,135,65L335,96.57c-34.1-35.13-79.46-57-135-65-30.74-4.42-61.62-4.07-89.28,1Q105,33.67,99.55,35c-31.12,7.39-55.64,20.7-71.38,38.84A73.13,73.13,0,0,0,12.66,102.35Z"/>
    </clipPath>
    <clipPath id="d7294149-a1e2-4eb7-ab8b-a9faf014ce18">
      <path class="c57c792e-6aaf-467c-9066-e7e6ee62bc74" d="M71,116.55l6.06-21.74q.27-1,.58-1.9c6.6-20.06,27.66-35.55,58-42.74l2.65-.6c33.57-7.31,72.85-3.61,105.1,9.89,31.28,13.09,46,31.38,46.12,31.55l-6.06,21.74c-.14-.18-14.84-18.46-46.12-31.55C205,67.7,165.75,64,132.18,71.32l-2.65.6c-30.29,7.19-51.35,22.67-58,42.74Q71.26,115.6,71,116.55Z"/>
    </clipPath>
    <clipPath id="9ed4a852-25c7-413b-9cb5-b773721d61e2">
      <path class="c57c792e-6aaf-467c-9066-e7e6ee62bc74" d="M61.49,113.88l6.06-21.74c-3.81,13.65-1.35,29.05,7.34,45.87l-6.06,21.74C60.15,142.93,57.69,127.53,61.49,113.88Z"/>
    </clipPath>
    <clipPath id="eb6fa309-56d6-49ae-b5c3-0de14479381d">
      <path class="c57c792e-6aaf-467c-9066-e7e6ee62bc74" d="M2.92,100,9,78.29c-10.59,38,10.95,74.09,12.11,76L15,176C13.87,174.12-7.67,138,2.92,100Z"/>
    </clipPath>
  </defs>
  <title>center_arch_0</title>
  <g id="2cfa5f50-750e-442b-ae71-56bc741d8cb4" data-name="Layer 2">
    <g id="298165f6-6eba-44be-b75f-644c983e6856" data-name="Layer 1">
      <g class="91665483-441f-4956-a167-0b77c2d0f6b3">
        <g class="91665483-441f-4956-a167-0b77c2d0f6b3">
          <g class="e4494826-45da-4a10-b7a7-7bfbae1df8db">
            <g class="91665483-441f-4956-a167-0b77c2d0f6b3">
              <path class="4e2ec004-e82b-41d6-8b35-e8bccc583303" d="M341,74.83,335,96.57a205.19,205.19,0,0,0-34.31-28.42l6.06-21.74A205.19,205.19,0,0,1,341,74.83"/>
              <path class="4ae51fbb-05e4-4fb0-9a2d-400fb9ca5cb5" d="M306.72,46.42l-6.06,21.74a215.1,215.1,0,0,0-27.83-15.51l6.06-21.74a215.1,215.1,0,0,1,27.83,15.51"/>
              <path class="62b78462-fb95-48e2-9fd5-a828dd4e6441" d="M278.89,30.91l-6.06,21.74a236.32,236.32,0,0,0-27.51-10.72l6.06-21.74a236.32,236.32,0,0,1,27.51,10.72"/>
              <path class="841f854b-2187-4d6b-8d30-1e7c485586fa" d="M251.38,20.18l-6.06,21.74a270.46,270.46,0,0,0-33.88-8.44l6.06-21.74a270.46,270.46,0,0,1,33.88,8.44"/>
              <path class="4d91f742-b223-40d6-9bdc-33e74bd86a29" d="M217.51,11.75l-6.06,21.74q-5.65-1-11.45-1.87a300.28,300.28,0,0,0-41.34-3.07L164.72,6.8a300.28,300.28,0,0,1,41.34,3.07q5.8.83,11.45,1.87"/>
              <path class="0356311c-34a9-47de-9a8b-ae5cb767d26d" d="M164.72,6.8l-6.06,21.74a260.17,260.17,0,0,0-47.94,4.08Q105,33.67,99.55,35A171.34,171.34,0,0,0,61.22,48.71L67.28,27a171.34,171.34,0,0,1,38.33-13.74q5.45-1.29,11.17-2.34A260.17,260.17,0,0,1,164.72,6.8"/>
              <path class="4d91f742-b223-40d6-9bdc-33e74bd86a29" d="M67.28,27,61.22,48.71a113.38,113.38,0,0,0-28,19.71l6.06-21.74A113.38,113.38,0,0,1,67.28,27"/>
              <path class="841f854b-2187-4d6b-8d30-1e7c485586fa" d="M39.31,46.68,33.25,68.42Q30.58,71,28.17,73.81a76.71,76.71,0,0,0-8.5,11.87l6.06-21.74a76.71,76.71,0,0,1,8.5-11.87q2.4-2.77,5.08-5.39"/>
              <path class="62b78462-fb95-48e2-9fd5-a828dd4e6441" d="M25.73,63.94,19.67,85.68a71.52,71.52,0,0,0-7,16.67l6.06-21.74a71.52,71.52,0,0,1,7-16.67"/>
            </g>
          </g>
        </g>
        <polygon class="9ddbdb19-af6c-49bd-a806-73e7f5ff0192" points="355.36 79.07 349.3 100.81 285.85 115.87 291.91 94.13 355.36 79.07"/>
        <polygon class="773232f2-bba0-426a-97b3-4bc543918e6b" points="291.91 94.13 285.85 115.87 283.4 112.75 289.46 91.02 291.91 94.13"/>
        <g class="91665483-441f-4956-a167-0b77c2d0f6b3">
          <g class="47fe7482-5ebb-4fab-afd4-15647118379c">
            <g class="91665483-441f-4956-a167-0b77c2d0f6b3">
              <path class="4e2ec004-e82b-41d6-8b35-e8bccc583303" d="M289.46,91l-6.06,21.74c-.1-.12-7.22-9-22.06-18.78l6.06-21.74c14.83,9.79,22,18.65,22.06,18.78"/>
              <path class="4ae51fbb-05e4-4fb0-9a2d-400fb9ca5cb5" d="M267.41,72.24,261.35,94A144.28,144.28,0,0,0,242.72,83.6l6.06-21.74a144.28,144.28,0,0,1,18.63,10.38"/>
              <path class="62b78462-fb95-48e2-9fd5-a828dd4e6441" d="M248.78,61.86,242.72,83.6q-2.63-1.22-5.44-2.4-6.43-2.69-13.21-4.86l6.06-21.74q6.76,2.17,13.21,4.86,2.81,1.17,5.44,2.4"/>
              <path class="841f854b-2187-4d6b-8d30-1e7c485586fa" d="M230.13,54.6l-6.06,21.74a180.1,180.1,0,0,0-22.46-5.61L207.67,49a180.1,180.1,0,0,1,22.46,5.61"/>
              <path class="4d91f742-b223-40d6-9bdc-33e74bd86a29" d="M207.67,49l-6.06,21.74a188.56,188.56,0,0,0-33.12-3.09l6.06-21.74A188.56,188.56,0,0,1,207.67,49"/>
              <path class="0356311c-34a9-47de-9a8b-ae5cb767d26d" d="M174.54,45.89l-6.06,21.74a168.14,168.14,0,0,0-36.3,3.68l-2.65.6a117.42,117.42,0,0,0-26.18,9.39l6.06-21.74a117.42,117.42,0,0,1,26.18-9.39l2.65-.6a168.14,168.14,0,0,1,36.3-3.68"/>
              <path class="4d91f742-b223-40d6-9bdc-33e74bd86a29" d="M109.4,59.57l-6.06,21.74A76.46,76.46,0,0,0,84.49,94.55l6.06-21.74A76.46,76.46,0,0,1,109.4,59.57"/>
              <path class="841f854b-2187-4d6b-8d30-1e7c485586fa" d="M90.55,72.81,84.49,94.55a54,54,0,0,0-9,11.5L81.51,84.3a54,54,0,0,1,9-11.5"/>
              <path class="62b78462-fb95-48e2-9fd5-a828dd4e6441" d="M81.51,84.3,75.45,106a45.73,45.73,0,0,0-3.88,8.61q-.31.94-.58,1.9l6.06-21.74q.27-1,.58-1.9a45.73,45.73,0,0,1,3.88-8.61"/>
            </g>
          </g>
        </g>
        <g class="91665483-441f-4956-a167-0b77c2d0f6b3">
          <g class="16276f2b-c71e-4594-a533-90c9eb974918">
            <g class="91665483-441f-4956-a167-0b77c2d0f6b3">
              <path class="4e2ec004-e82b-41d6-8b35-e8bccc583303" d="M74.89,138l-6.06,21.74c-8.69-16.82-11.15-32.22-7.34-45.87l6.06-21.74c-3.81,13.65-1.35,29.05,7.34,45.87"/>
            </g>
          </g>
        </g>
        <g class="91665483-441f-4956-a167-0b77c2d0f6b3">
          <g class="7c2c2f47-8a51-4376-af29-33ef391e5e76">
            <g class="91665483-441f-4956-a167-0b77c2d0f6b3">
              <path class="4e2ec004-e82b-41d6-8b35-e8bccc583303" d="M21.1,154.29,15,176c-1.17-1.91-22.71-38-12.11-76L9,78.29c-10.59,38,10.95,74.09,12.11,76"/>
            </g>
          </g>
        </g>
        <polygon class="babf2053-85fd-4909-b6ff-6717d9e1fd20" points="23.29 157.9 17.23 179.63 15.04 176.03 21.1 154.29 23.29 157.9"/>
        <polygon class="9ddbdb19-af6c-49bd-a806-73e7f5ff0192" points="87.05 142.76 80.99 164.5 17.23 179.63 23.29 157.9 87.05 142.76"/>
        <path class="33c2fdcf-3985-4eb1-bffe-842beccd7f83" d="M352.11,75.56l3.25,3.51L291.91,94.13,289.46,91c-.14-.18-14.84-18.46-46.12-31.55C211.1,46,171.81,42.27,138.24,49.58l-2.65.6c-30.29,7.19-51.35,22.67-58,42.74-4.52,13.65-1.9,29.43,7.77,46.88l1.65,3L23.29,157.9l-2.2-3.61c-1.48-2.43-35.85-60,4.58-106.62C42.28,28.53,68.12,14.5,100.84,6.73q5.71-1.36,11.69-2.45C141.47-1,173.77-1.4,205.93,3.22,265.67,11.81,316.22,36.83,352.11,75.56ZM295,85.75l46-10.92c-34.1-35.13-79.46-57-135-65-30.74-4.42-61.62-4.07-89.28,1q-5.71,1-11.17,2.34C74.49,20.62,50,33.93,34.23,52.07,1.64,89.63,21.18,136,27.88,149.18l47-11.16c-9.13-17.68-11.38-33.79-6.71-47.94,7.2-21.83,30-38.63,62.64-46.39l2.84-.65c36-7.84,78.33-3.82,113.17,10.76,26.86,11.25,42.36,25.72,48.2,32"/>
      </g>
    </g>
  </g>
</svg>
