<svg xmlns="http://www.w3.org/2000/svg" xmlns:xlink="http://www.w3.org/1999/xlink" viewBox="0 0 189.62 209.07">
  <defs>
    <style>
      .c79e4277-cb79-4d2d-9ab4-95fefe2f8da7 {
        fill: none;
      }

      .\36 925e0fb-9aa2-4165-8e10-8ed5fdbefcc7 {
        isolation: isolate;
      }

      .f7444d01-c9d0-4f5a-9663-08179193d4b5 {
        fill: #999b9f;
      }

      .\31 fc92776-41bb-4e1c-b252-af31088d3bed {
        fill: #7e8084;
      }

      .\39 d647475-fd6d-450f-9dbe-e97cdcf2a1e0 {
        fill: #999b9e;
      }

      .\34 8a5e7f6-a755-4e0c-af81-ac4a5aa33da9 {
        clip-path: url(#70f0da8e-f0ee-4a7f-b38c-2ef45ca0395c);
      }

      .f8364ddd-80b7-42c9-98f9-447def4feada {
        fill: #8f9195;
      }

      .\32 47ba74b-96b0-4470-bc79-2e0e11202249 {
        fill: #8c8e92;
      }

      .\38 68d018d-e1d9-455a-8c81-52c1b34ebcae {
        fill: #898b8e;
      }

      .\32 cc15783-0c46-452d-a583-934dd04cebe3 {
        fill: #85878b;
      }

      .b7e2ee71-5eaa-4ecc-9d79-799aa45b479f {
        clip-path: url(#ec75f81b-ff7c-4827-8f32-8a924f56cc8a);
      }

      .\32 024f85c-50b0-4750-8ff5-4f70fce22645 {
        clip-path: url(#060da495-0de2-4a60-aa7a-94fed4fc8630);
      }

      .\36 60e73ce-5edc-4d1b-a71c-b476db56737c {
        fill: #c6c7cb;
      }

      .bb05e70b-c5f7-4598-bb6b-90469bc4f1ce {
        clip-path: url(#500e8e01-d4fe-405b-b6ae-4e6fc84f0b99);
      }

      .aed2b353-721b-48f8-87a2-fc1fd858e5c1 {
        fill: #7b7d81;
      }
    </style>
    <clipPath id="70f0da8e-f0ee-4a7f-b38c-2ef45ca0395c">
      <path class="c79e4277-cb79-4d2d-9ab4-95fefe2f8da7" d="M14.21,176.41l6.06-21.74c10-35.93,42-97,144.19-129.37L158.4,47C56.23,79.42,24.23,140.48,14.21,176.41Z"/>
    </clipPath>
    <clipPath id="ec75f81b-ff7c-4827-8f32-8a924f56cc8a">
      <path class="c79e4277-cb79-4d2d-9ab4-95fefe2f8da7" d="M33.7,161.45l6.06-21.74a119.2,119.2,0,0,0-4.31,33l-6.06,21.74A119.2,119.2,0,0,1,33.7,161.45Z"/>
    </clipPath>
    <clipPath id="060da495-0de2-4a60-aa7a-94fed4fc8630">
      <path class="c79e4277-cb79-4d2d-9ab4-95fefe2f8da7" d="M4.72,174l6.06-21.74c-4.85,17.39-4.73,29.12-4.72,29.48L0,203.47C0,203.11-.12,191.38,4.72,174Z"/>
    </clipPath>
    <clipPath id="500e8e01-d4fe-405b-b6ae-4e6fc84f0b99">
      <path class="c79e4277-cb79-4d2d-9ab4-95fefe2f8da7" d="M43.21,164.1l6.06-21.74c23.13-83,135-111.79,136.23-112.11L179.44,52C178.17,52.3,66.34,81.12,43.21,164.1Z"/>
    </clipPath>
  </defs>
  <title>left_arch_0</title>
  <g id="1d9c988f-40f1-4ac4-b516-5e730a2f46c7" data-name="Layer 2">
    <g id="eaf76b68-85e5-4eb2-9ca1-cf044dc94389" data-name="Layer 1">
      <g class="6925e0fb-9aa2-4165-8e10-8ed5fdbefcc7">
        <polygon class="f7444d01-c9d0-4f5a-9663-08179193d4b5" points="164.54 8.5 158.48 30.23 151.76 31.83 157.82 10.09 164.54 8.5"/>
        <polygon class="1fc92776-41bb-4e1c-b252-af31088d3bed" points="176.58 24.9 170.52 46.64 158.48 30.23 164.54 8.5 176.58 24.9"/>
        <polygon class="1fc92776-41bb-4e1c-b252-af31088d3bed" points="155.35 20.17 149.29 41.91 138.59 27.32 144.65 5.59 155.35 20.17"/>
        <polygon class="f7444d01-c9d0-4f5a-9663-08179193d4b5" points="189.62 29.22 183.56 50.96 179.44 51.98 185.5 30.25 189.62 29.22"/>
        <polygon class="9d647475-fd6d-450f-9dbe-e97cdcf2a1e0" points="168.13 24.14 162.07 45.88 158.4 47.04 164.46 25.3 168.13 24.14"/>
        <g class="6925e0fb-9aa2-4165-8e10-8ed5fdbefcc7">
          <g class="48a5e7f6-a755-4e0c-af81-ac4a5aa33da9">
            <g class="6925e0fb-9aa2-4165-8e10-8ed5fdbefcc7">
              <path class="f8364ddd-80b7-42c9-98f9-447def4feada" d="M164.46,25.3,158.4,47a304.54,304.54,0,0,0-46.26,18.74L118.2,44A304.54,304.54,0,0,1,164.46,25.3"/>
              <path class="247ba74b-96b0-4470-bc79-2e0e11202249" d="M118.2,44l-6.06,21.74C89.45,77.33,71.78,90.46,58,103.93l6.06-21.74C77.84,68.72,95.51,55.59,118.2,44"/>
              <path class="868d018d-e1d9-455a-8c81-52c1b34ebcae" d="M64.09,82.19,58,103.93a171.66,171.66,0,0,0-28.68,36.71l6.06-21.74A171.66,171.66,0,0,1,64.09,82.19"/>
              <path class="2cc15783-0c46-452d-a583-934dd04cebe3" d="M35.41,118.9l-6.06,21.74a154.4,154.4,0,0,0-15.13,35.77l6.06-21.74A154.4,154.4,0,0,1,35.41,118.9"/>
            </g>
          </g>
        </g>
        <g class="6925e0fb-9aa2-4165-8e10-8ed5fdbefcc7">
          <g class="b7e2ee71-5eaa-4ecc-9d79-799aa45b479f">
            <g class="6925e0fb-9aa2-4165-8e10-8ed5fdbefcc7">
              <path class="1fc92776-41bb-4e1c-b252-af31088d3bed" d="M35.45,172.75l-6.06,21.74a119.2,119.2,0,0,1,4.31-33l6.06-21.74a119.2,119.2,0,0,0-4.31,33"/>
            </g>
          </g>
        </g>
        <g class="6925e0fb-9aa2-4165-8e10-8ed5fdbefcc7">
          <g class="2024f85c-50b0-4750-8ff5-4f70fce22645">
            <g class="6925e0fb-9aa2-4165-8e10-8ed5fdbefcc7">
              <path class="1fc92776-41bb-4e1c-b252-af31088d3bed" d="M6.06,181.73,0,203.47c0-.36-.13-12.09,4.72-29.48l6.06-21.74c-4.85,17.39-4.73,29.12-4.72,29.48"/>
            </g>
          </g>
        </g>
        <path class="660e73ce-5edc-4d1b-a71c-b476db56737c" d="M144.65,5.59,168.18,0l21.44,29.22-4.12,1C184.07,30.61,42.68,67,45.14,176.11l.05,2-39,9.26-.14-5.61C6,180.61,4.94,69.62,155.35,20.17ZM176.58,24.9l-12-16.4-6.72,1.6,10.31,14-3.67,1.16C34.42,66.51,18,154.19,16,177.37l19.45-4.62C34.72,71.86,153,31.86,176.58,24.9"/>
        <g class="6925e0fb-9aa2-4165-8e10-8ed5fdbefcc7">
          <g class="bb05e70b-c5f7-4598-bb6b-90469bc4f1ce">
            <g class="6925e0fb-9aa2-4165-8e10-8ed5fdbefcc7">
              <path class="f8364ddd-80b7-42c9-98f9-447def4feada" d="M185.5,30.25,179.44,52a265.73,265.73,0,0,0-49.68,19.55l6.06-21.74A265.73,265.73,0,0,1,185.5,30.25"/>
              <path class="247ba74b-96b0-4470-bc79-2e0e11202249" d="M135.82,49.79l-6.06,21.74c-17.09,8.72-36,20.66-52,36.4l6.06-21.74c16.08-15.74,34.95-27.68,52-36.4"/>
              <path class="868d018d-e1d9-455a-8c81-52c1b34ebcae" d="M83.78,86.19l-6.06,21.74a138.91,138.91,0,0,0-23.19,29.43l6.06-21.74A138.91,138.91,0,0,1,83.78,86.19"/>
              <path class="2cc15783-0c46-452d-a583-934dd04cebe3" d="M60.59,115.62l-6.06,21.74A114.42,114.42,0,0,0,43.21,164.1l6.06-21.74a114.42,114.42,0,0,1,11.33-26.74"/>
            </g>
          </g>
        </g>
        <polygon class="f7444d01-c9d0-4f5a-9663-08179193d4b5" points="45.19 178.08 39.13 199.82 0.15 209.07 6.21 187.33 45.19 178.08"/>
        <polygon class="aed2b353-721b-48f8-87a2-fc1fd858e5c1" points="6.21 187.33 0.15 209.07 0 203.47 6.06 181.73 6.21 187.33"/>
      </g>
    </g>
  </g>
</svg>
