<svg xmlns="http://www.w3.org/2000/svg" xmlns:xlink="http://www.w3.org/1999/xlink" viewBox="0 0 354.12 102.83">
  <defs>
    <style>
      .fc7c98ce-db9d-47e8-b006-6f43698949a2 {
        fill: none;
      }

      .\30 03ff6e1-e3c6-47f3-b1f7-2bd7413c7a3c {
        isolation: isolate;
      }

      .\39 c21ecd2-24cd-46d5-bc5e-40db8f40faed {
        clip-path: url(#c72608e4-7546-4c6a-be3c-e3c75320c5e6);
      }

      .\37 3a9cc3a-a9fb-4d70-9c4e-9a01924dd249 {
        fill: #828488;
      }

      .aecbe4d8-4a4f-44a3-a572-23fb30c23950 {
        fill: #85878b;
      }

      .\32 5890f13-e4cc-4f1d-8b63-c69f7e370f92 {
        fill: #898b8e;
      }

      .d6644eaf-eaaa-4687-8750-06525aad0bff {
        fill: #8c8e92;
      }

      .\34 a7ec38e-057a-45bf-a41e-95499d75dfbc {
        fill: #8f9195;
      }

      .\39 0369918-46a5-4910-a207-10263e302187 {
        fill: #999b9f;
      }

      .\38 a71462f-84fd-427a-8e8e-6455b95f820e {
        fill: #898b8f;
      }

      .\30 b35db1a-2f83-4cc1-b260-1a8c259b5e4b {
        fill: #7e8084;
      }

      .b31109d0-784d-451e-a6ef-2cc9c6294487 {
        clip-path: url(#77f4241a-0f8c-4f54-812d-a6602117a295);
      }

      .\31 8eb16c0-4560-4459-8071-d9732ff6fbc2 {
        fill: #c6c7cb;
      }
    </style>
    <clipPath id="c72608e4-7546-4c6a-be3c-e3c75320c5e6">
      <path class="fc7c98ce-db9d-47e8-b006-6f43698949a2" d="M334.76,68.79,328.7,90.53C298.26,75.06,177,20,34.25,43.62l6.06-21.74C183.09-1.7,304.32,53.33,334.76,68.79Z"/>
    </clipPath>
    <clipPath id="77f4241a-0f8c-4f54-812d-a6602117a295">
      <path class="fc7c98ce-db9d-47e8-b006-6f43698949a2" d="M312.7,79.68l-6.06,21.74C172,23.72,27.09,55.27,25.62,55.6l6.06-21.74C33.15,33.54,178.11,2,312.7,79.68Z"/>
    </clipPath>
  </defs>
  <title>right_arch_0</title>
  <g id="5bca800f-4b48-42fd-b5a7-6388baff6f1d" data-name="Layer 2">
    <g id="07bacb7b-5f41-4f86-9147-79a8b2f4f13f" data-name="Layer 1">
      <g class="003ff6e1-e3c6-47f3-b1f7-2bd7413c7a3c">
        <g class="003ff6e1-e3c6-47f3-b1f7-2bd7413c7a3c">
          <g class="9c21ecd2-24cd-46d5-bc5e-40db8f40faed">
            <g class="003ff6e1-e3c6-47f3-b1f7-2bd7413c7a3c">
              <path class="73a9cc3a-a9fb-4d70-9c4e-9a01924dd249" d="M334.76,68.79,328.7,90.53c-2.93-1.49-6.71-3.35-11.27-5.47l6.06-21.74c4.56,2.12,8.34,4,11.27,5.47"/>
              <path class="aecbe4d8-4a4f-44a3-a572-23fb30c23950" d="M323.49,63.32l-6.06,21.74a501.83,501.83,0,0,0-57.71-22.41l6.06-21.74a501.83,501.83,0,0,1,57.71,22.41"/>
              <path class="25890f13-e4cc-4f1d-8b63-c69f7e370f92" d="M265.78,40.91l-6.06,21.74A531.37,531.37,0,0,0,193.4,46l6.06-21.74a531.37,531.37,0,0,1,66.32,16.69"/>
              <path class="d6644eaf-eaaa-4687-8750-06525aad0bff" d="M199.46,24.22,193.4,46a486.67,486.67,0,0,0-86.07-8.13l6.06-21.74a486.67,486.67,0,0,1,86.07,8.13"/>
              <path class="4a7ec38e-057a-45bf-a41e-95499d75dfbc" d="M113.39,16.09l-6.06,21.74a439.14,439.14,0,0,0-73.08,5.79l6.06-21.74a439.14,439.14,0,0,1,73.08-5.79"/>
            </g>
          </g>
        </g>
        <polygon class="90369918-46a5-4910-a207-10263e302187" points="354.12 71.84 348.06 93.58 309.08 102.83 315.14 81.09 354.12 71.84"/>
        <polygon class="8a71462f-84fd-427a-8e8e-6455b95f820e" points="315.14 81.09 309.08 102.83 306.64 101.42 312.7 79.69 315.14 81.09"/>
        <polygon class="90369918-46a5-4910-a207-10263e302187" points="25.96 8.5 19.9 30.23 13.18 31.83 19.24 10.09 25.96 8.5"/>
        <polygon class="90369918-46a5-4910-a207-10263e302187" points="40.31 21.88 34.25 43.62 30.21 44.28 36.27 22.54 40.31 21.88"/>
        <polygon class="0b35db1a-2f83-4cc1-b260-1a8c259b5e4b" points="36.27 22.54 30.21 44.28 19.9 30.23 25.96 8.5 36.27 22.54"/>
        <polygon class="0b35db1a-2f83-4cc1-b260-1a8c259b5e4b" points="25.15 31.6 19.09 53.34 0 27.33 6.06 5.59 25.15 31.6"/>
        <g class="003ff6e1-e3c6-47f3-b1f7-2bd7413c7a3c">
          <g class="b31109d0-784d-451e-a6ef-2cc9c6294487">
            <g class="003ff6e1-e3c6-47f3-b1f7-2bd7413c7a3c">
              <path class="73a9cc3a-a9fb-4d70-9c4e-9a01924dd249" d="M312.7,79.68l-6.06,21.74q-14.3-8.26-28.71-14.92L284,64.76q14.38,6.69,28.71,14.92"/>
              <path class="aecbe4d8-4a4f-44a3-a572-23fb30c23950" d="M284,64.76,277.93,86.5a382.22,382.22,0,0,0-44.62-17.41l6.06-21.74A382.22,382.22,0,0,1,284,64.76"/>
              <path class="25890f13-e4cc-4f1d-8b63-c69f7e370f92" d="M239.38,47.35l-6.06,21.74a411.32,411.32,0,0,0-51.5-12.85l6.06-21.74a411.32,411.32,0,0,1,51.5,12.85"/>
              <path class="d6644eaf-eaaa-4687-8750-06525aad0bff" d="M187.88,34.5l-6.06,21.74A452.51,452.51,0,0,0,102.49,49l6.06-21.74a452.51,452.51,0,0,1,79.33,7.25"/>
              <path class="4a7ec38e-057a-45bf-a41e-95499d75dfbc" d="M108.55,27.26,102.49,49c-45.72-.18-76.2,6.46-76.87,6.61l6.06-21.74c.67-.15,31.14-6.78,76.87-6.61"/>
            </g>
          </g>
        </g>
        <polygon class="0b35db1a-2f83-4cc1-b260-1a8c259b5e4b" points="27.51 34.8 21.45 56.54 19.09 53.34 25.15 31.6 27.51 34.8"/>
        <polygon class="90369918-46a5-4910-a207-10263e302187" points="31.68 33.86 25.63 55.6 21.45 56.54 27.51 34.8 31.68 33.86"/>
        <path class="18eb16c0-4560-4459-8071-d9732ff6fbc2" d="M347.21,67.84l6.91,4-39,9.25-2.44-1.41C178.11,2,33.15,33.54,31.68,33.86l-4.18.94L25.15,31.6,6.06,5.59,29.6,0,40.3,14.58C207.89-11.47,345.83,67,347.21,67.84Zm-31.88,5.57,19.43-4.61C304.32,53.33,183.09-1.7,40.31,21.88l-4,.67L26,8.5l-6.72,1.6,12,16.4C56.56,21.86,189.74,2.15,315.33,73.41"/>
      </g>
    </g>
  </g>
</svg>
